<?xml version="1.0" encoding="UTF-8"?>
<svg id="Capa_2" data-name="Capa 2" xmlns="http://www.w3.org/2000/svg" viewBox="0 0 509.48 205.15">
  <defs>
    <style>
      .cls-1 {
        fill: #009ee1;
      }

      .cls-1, .cls-2, .cls-3, .cls-4, .cls-5, .cls-6 {
        stroke-width: 0px;
      }

      .cls-2 {
        fill: #000;
      }

      .cls-3 {
        fill: #e21400;
      }

      .cls-4 {
        fill: #040403;
      }

      .cls-5 {
        fill: #00a70d;
      }

      .cls-6 {
        fill: #f3be3d;
      }
    </style>
  </defs>
  <g id="vivas_victoy_2_DEF_Imagen" data-name="vivas victoy 2 DEF Imagen">
    <g>
      <path class="cls-2" d="M509.1,58.43c.4-2.69.4-5.37.37-8.08-.03-2.42-1.37-4.31-2.09-6.44-.56-1.67-1.69-3.06-2.41-4.64-.68-1.48-1.64-2.72-2.67-3.89-1.34-1.51-2.8-2.9-3.64-4.79-.18-.39-.45-.84-.8-1.03-2.47-1.35-3.97-3.9-6.72-5.07-1.38-.59-2.75-1.86-4.02-2.94-.48-.41-.7-1.13-1.53-1.11-1.13.02-1.91-.75-2.8-1.29-1.73-1.05-3.8-1.39-5.47-2.56-.49-.34-1.07-.52-1.53-.43-.89.17-1.54-.26-2.17-.65-.41-.25-.77-.46-1.24-.54-2.09-.37-4.15-.89-6.26-1.21-3.01-.46-5.98-1.32-9.05-1.07-1.32.1-2.59-.8-3.9-.09-.54.3-1.13.23-1.74.23-1.53-.01-3.11-.37-4.57.53-.42.26-1.09.27-1.6.17-1.06-.21-2.07.06-3.07.19-2.09.27-3.86,1.57-5.96,1.95-2.7.5-5.11,1.96-7.8,2.6-.49.12-1.21.11-1.48.46-.7.9-1.65,1.21-2.63,1.51-.96.29-1.87.64-2.61,1.34-1.43,1.35-3.25,2.12-4.88,3.14-1.74,1.09-4.04,1.27-4.85,3.67-.16.48-.92.77-1.43,1.11-.25.17-.54.21-.77.49-.87,1.06-1.83,2.04-2.98,2.83-.84.57-1.22.19-1.02-.52.31-1.1-.24-1.83-.68-2.67-.14-.28-.33-.6-.31-.89.09-1.4-.72-2.27-1.66-3.13-.54-.49-1.21-1.05-1.38-1.7-.75-2.88-3.34-4.02-5.21-5.84-.79-.77-1.88-.83-2.79-1.29-1.65-.83-3-2.28-5.05-2.23-.33,0-.73-.11-1-.31-.95-.71-1.98-1.14-3.18-1.03-1.67.16-3.41-.62-5.01.18-1.11.56-2.29.58-3.44.83-.77.17-1.55-.06-2.33.26-2.32.96-4.92.45-7.3,1.39-1.2.47-2.42.76-3.51,1.55-1.39,1.01-2.97,1.79-4.43,2.7-1.22.77-2.47,1.54-3.62,2.41-1.15.87-2.22,1.9-3.1,3.03-1.24,1.59-3.18,2.51-4.06,4.45-.25.56-.81,1.01-1.31,1.41-2.43,1.96-4.42,4.32-6.24,6.83-2.12,2.93-4.28,5.82-6.51,8.67-.76.97-1.83,1.78-2.1,3.13-.34,1.66-1.15,3.08-2.46,4.2-.41.35-.72.82-1.05,1.27-1.17,1.56-1.5,3.59-2.95,5.01-.28.27-.91.48-.85,1.07.17,1.6-1.18,2.58-1.68,3.92-.52,1.41-1.55,2.73-2.16,4.18-1.32,3.14-3.37,5.91-4.61,9.08-1.22,3.12-2.82,6.03-4.66,8.82-1.6,2.42-2.74,5.09-4.03,7.66-1.27,2.51-2.29,5.14-3.74,7.57-.07.12-.63.35-.16.68-.75.74-.83,1.82-1.18,2.72-.64,1.68-2.22,2.87-2.35,4.77-.04.49-.25,1.12-.66,1.17-.44.06-.75-.5-1.01-.94-.7-1.2-1.7-2.14-2.85-2.89-.76-.5-.94-.95-.51-1.82.66-1.34,1.89-2.3,2.47-3.62.75-1.7,1.87-3.18,2.61-4.88.64-1.47,1.69-2.78,2.24-4.27,1.51-4.05,3.72-7.73,5.67-11.56.42-.82,1.12-1.6,1.36-2.4.61-2.07,1.63-3.96,2.57-5.84,2.16-4.29,4.22-8.62,6.23-12.98.74-1.61,1.65-3.13,2.3-4.78,1.24-3.18,2.81-6.21,4.01-9.41.95-2.55,2.35-4.94,2.58-7.72.09-1.09.82-2.04.82-3.06-.02-3.36.37-6.72-.57-10.09-.99-3.53-2.7-6.61-4.83-9.5-.53-.71-1.03-1.46-1.73-2.08-2.17-1.96-4.87-3.03-7.34-4.45-1.65-.95-3.46-1.94-5.59-1.66-.78.1-1.48.63-2.31.45-2.11-.47-4.24,0-6.2.47-2.58.61-4.98,1.98-7.26,3.42-.79.5-1.82.8-2.27,1.68-.52,1.03-1.38,1.67-2.25,2.29-.92.66-2.04,1.09-2.36,2.35-.03.13-.22.23-.33.34-1.83,1.79-3.2,3.96-4.77,5.95-1.13,1.44-1.98,3.2-2.36,5.12-.13.64-.3,1.47-.89,1.89-1.38,1-1.73,2.52-2.19,4-.61,2-1.07,4.08-1.93,5.97-.84,1.84-1.48,3.67-1.69,5.67-.07.67,0,1.4-.27,1.99-1.14,2.59-1.75,5.37-2.84,8-.47,1.12-.86,2.38-1.13,3.64-.27,1.25-.63,2.54-1.08,3.7-.66,1.7-1.18,3.42-1.59,5.18-.39,1.66-.8,3.31-1.72,4.99-.42-1.4-.12-2.74-.49-3.99-.37-1.26.03-2.65-.58-3.87-.39-.79-.58-1.58-.59-2.49-.02-1.76-.77-3.37-1.21-5.05-.35-1.35-1.29-2.5-1.09-4.08.1-.72.13-1.73-.39-2.42-1.1-1.47-1.5-3.23-2.21-4.85-.11-.25-.3-.44-.22-.77.31-1.29-.55-2.36-.74-3.56-.18-1.11-.96-2-1.3-3-.8-2.32-1.28-4.74-2.32-6.98-.59-1.27-.77-2.73-1.96-3.7-.37-.3-.78-.79-.81-1.22-.07-.85-.53-1.41-.99-2.02-.26-.35-.59-.73-.64-1.13-.16-1.47-.72-2.6-1.93-3.56-.6-.48-1.26-1.15-1.6-1.95-.59-1.4-2.18-2.19-2.31-3.88-.01-.15-.36-.28-.56-.41-1.41-.93-3.11-1.55-4.06-3.02-.82-1.26-2.01-1.89-3.3-2.24-.99-.26-1.77-.82-2.64-1.23-.37-.17-.72-.29-1.1-.41-1.39-.41-2.82-.33-4.2-.6-1.87-.36-3.66-.34-5.45.25-.35.11-.53.13-.83-.11-1.57-1.2-3.17-2.36-4.77-3.53-.14-.11-.39-.03-.44-.3-.34-1.6-1.79-1.77-2.96-2.35-2.28-1.13-4.9-.76-7.22-1.69-1.82-.73-3.83-.57-5.73-.89-2.75-.46-5.62-.14-8.4.59-1.74.46-3.37,1.3-5.16,1.54-1.19.16-2.26.5-3.1,1.43-.25.28-.72.5-1.08.34-.99-.45-1.9.22-2.32.67-.95,1-1.88,1.82-3.17,2.43-1.82.85-2.57,2.93-4.13,4.19-.53.43-.65.96-1.39.45-.29-.2-.36.16-.5.34-1.98,2.48-3.01,5.48-4.41,8.25-1.48,2.93-1.18,6.31-1.39,9.5-.18,2.7.3,5.44.33,8.16.03,2.47.81,4.7,1.71,6.95.57,1.43,1.12,2.85,1.92,4.19.95,1.58,1.51,3.4,3.02,4.62.93.75,1.73,1.59,2.36,2.62.3.5.75.91,1.17,1.33,2.2,2.21,5.4,2.6,7.92,4.29,1.13.76,2.77.79,4.17,1.21,1.59.48,3.32.33,4.95-.22.26-.09.49-.23.78-.04.73.46,1.39.55,2.33.22,1.85-.66,3.91-.18,5.83-.75.75-.22,1.57-.28,2.35-.27,2.31.03,4.34-.75,6.11-2.17.84-.68,1.66-.58,1.91.47.2.82.67,1.41,1.15,2.04.44.57.83,1.18,1,1.89.34,1.52,1.01,2.92,1.63,4.33.76,1.74,2.14,3.12,2.81,4.94.48,1.31.71,2.86,1.5,3.86,1.61,2.04,1.47,4.9,3.44,6.68.11.1.15.28.22.42.86,1.71,1.62,3.48,2.61,5.11.85,1.4,1.54,2.86,2.38,4.33-.48-.06-.84-.16-1.18-.13-1.57.15-3.14.12-4.72.55-1.56.42-3.27.29-4.92.55-1.64.26-3.2.79-4.4,1.75-2.26,1.81-4.52,3.68-6.25,6.06-.17.24-.33.22-.47.08-1.28-1.23-3.05-1.64-4.46-2.63-.62-.43-1.55-.54-1.87-1.05-.54-.82.76-1.06,1-1.73.91-2.49,1.35-5,.89-7.67-.23-1.35-.16-2.8.28-4.08.31-.92.24-1.53-.29-2.27-.37-.53-.79-1.21-.76-1.81.07-1.74-.5-3.34-1.1-4.86-1.04-2.62-2.94-4.75-4.63-7-1.03-1.37-2.09-2.47-3.67-3.24-1.97-.95-4.03-1.7-6.07-2.37-1.95-.63-3.96-1.34-6.12-1.28-1.17.03-2.24.66-3.39.53-3.17-.35-6.09.68-8.69,2.16-2.97,1.69-6.25,3-8.65,5.64-1.16,1.28-2.61,2.31-3.61,3.74-.88,1.25-1.55,2.64-2.55,3.82-.68.81-1.37,1.72-1.7,2.7-.83,2.47-2.67,4.31-3.79,6.6-.55,1.13-1.46,2.1-1.92,3.31-.15.63-.3,1.26-.45,1.9-.59.87-.64,1.98-1.25,2.85-.19.26-.38.51-.44.95-.25,1.64-.63,3.29-1.17,4.86-.59,1.7-1.7,3.17-2.46,4.82-.47,1.01-.84,2.12-1.5,3.06-.35.51-.52.47-.84.03-.52-.7-1.16-1.32-1.58-2.06-.84-1.49-1.99-2.71-3.25-3.81-1.07-.93-1.29-1.37-.52-2.52.15-.23.27-.49.43-.71,1.4-1.96,1.69-4.4,2.86-6.46.73-1.27,1.6-2.52,1.99-3.9.53-1.86,1.37-3.59,2.33-5.15,1.54-2.51,2.15-5.39,3.64-7.9,1.22-2.04,1.67-4.51,3.42-6.27.19-.19.39-.47.4-.72.02-1.23.82-2.13,1.31-3.14.99-2.05,2.56-3.8,3.23-6.05.25-.85.76-1.62,1.13-2.43.66-1.46,1.21-2.97,1.98-4.37,1.17-2.12,2.42-4.21,3.35-6.45.24-.59.69-1.02.88-1.65.74-2.46,1.66-4.87,2.34-7.35.37-1.37,1.01-2.63,1.42-4,.55-1.84.74-3.75,1.35-5.58.56-1.66.8-3.54.5-5.17-.4-2.12-.81-4.29-1.84-6.32-1.15-2.26-2.34-4.43-3.97-6.36-.48-.57-.85-1.2-1.42-1.72-1.87-1.69-4.18-2.62-6.32-3.84-2.01-1.14-4.05-2.58-6.49-2.13-1.52.28-3.01.05-4.49.29-1.44.23-2.94.26-4.33.66-2.44.7-4.68,1.92-6.84,3.23-.83.51-1.89.84-2.38,1.74-.53.96-1.29,1.63-2.16,2.22-1,.68-2.16,1.2-2.52,2.52-.04.13-.22.22-.33.33-1.81,1.8-3.21,3.95-4.75,5.96-1.09,1.42-1.93,3.14-2.3,5.01-.13.65-.3,1.47-.87,1.9-1.36,1.02-1.76,2.5-2.2,4-.6,2.01-1.07,4.08-1.92,5.97-.86,1.91-1.56,3.81-1.72,5.91-.04.59-.02,1.23-.24,1.75-1.15,2.59-1.76,5.37-2.84,8-.46,1.12-.94,2.36-1.12,3.65-.17,1.19-1.15,2.18-.91,3.51.03.17-.26.39-.35.61-.24.59-.49,1.18-.68,1.78-.8,2.61-1.07,5.38-2.51,7.86-.09-1.88-.45-3.73-.65-5.59-.23-2.21-.97-4.33-1.31-6.53-.21-1.35-.61-2.78-1.24-4.11-.58-1.22-.97-2.57-.84-3.99.05-.56.06-1.17-.3-1.62-1.13-1.44-1.48-3.24-2.21-4.85-.1-.21-.24-.38-.19-.66.24-1.28-.49-2.37-.71-3.57-.2-1.15-1.02-2.07-1.36-3.11-.76-2.33-1.31-4.73-2.3-6.99-.38-.88-.5-2.01-1.13-2.61-1.54-1.46-1.79-3.63-3.17-5.14-.11-.12-.1-.37-.13-.56-.22-1.21-.64-2.21-1.67-3.07-.75-.62-1.41-1.48-1.95-2.41-.72-1.22-1.9-2.17-2.23-3.66-.04-.16-.38-.25-.58-.38-1.46-.93-3.2-1.63-4.12-3.11-.81-1.3-2.02-1.77-3.23-2.14-.97-.3-1.75-.85-2.63-1.25-.33-.15-.67-.24-1-.34-1.42-.44-2.93-.27-4.3-.65-1.33-.37-2.54-.09-3.8-.04-2.28.09-4.32,1.17-6.41,1.89-1.59.55-2.82,2.05-4.6,2.41-.06.01-.1.13-.16.17-1.3.68-1.74,2.13-2.8,3.1-2.19,2.02-3.6,4.72-4.43,7.66-.57,2.05-.97,4.12-1.17,6.23-.24.1-.3.22-.04.37-.07.27-.14.53-.21.8-.1.42.07.76.29,1.1-.32.74.43,1.5-.06,2.24-.11.16-.16.31.07.41.07.58.14,1.17.21,1.76,0,0,0,0,0,0,.03.26.06.52.09.78.2.58.5,1.13.43,1.77-.11.18-.22.37-.33.56-.29.95.47,1.69.49,2.59.08.34.16.68.24,1.03h0c-.14.42,0,.78.24,1.13.1.17.3.35.28.51-.24,1.81,1.17,3.18,1.22,4.95.04,1.49,1.17,2.71,1.57,4.12.31,1.08,1.42,1.59,1.69,2.6.6,2.18,1.73,4.05,2.97,5.9.33.49.65,1.03.79,1.59.39,1.55,1.07,2.98,1.68,4.44.63,1.51,1.83,2.68,2.53,4.19.85,1.84,1.15,3.92,2.39,5.59,1.25,1.7,1.02,4.13,2.79,5.58.11.09.21.27.22.4.02.73.53,1.21.83,1.8,1.22,2.49,2.82,4.78,3.89,7.35.12.06.33.1.19.29-.12.18-.25.03-.37-.06-1.86.05-3.68.11-5.54.57-1.53.38-3.2.28-4.81.52-1.64.24-3.2.78-4.4,1.74-2.26,1.81-4.52,3.68-6.25,6.05-.16.23-.31.24-.47.1-1.51-1.39-3.56-1.85-5.15-3.09-.68-.53-1.64-.71-2.23-.72-1.75-.02-3.5.58-5.26.71-1.2.08-2.12.51-2.91,1.31-.47.47-1.08.45-1.64.6-.2.05-.44-.08-.67.07-1.14.74-2.08,1.78-3.34,2.32-1.83.79-2.87,2.45-4.28,3.7-1.55,1.36-2.97,2.85-3.97,4.7-.64,1.17-.81,2.59-1.84,3.52-.68.62-1.06,1.36-1.29,2.21-.28,1.04-.79,2.14-1.33,2.88-.5.7-.7,1.3-.8,2.03-.04.28-.13.47-.28.69-1.36,2-1.75,4.38-2.29,6.64-.41,1.73-.46,3.57-.81,5.35-.6,2.99-.45,6.09,0,9,.43,2.78,1.45,5.58,2.82,8.14.43.81.46,1.78.97,2.49,1.54,2.15,2.82,4.6,5.23,5.93,1.39.77,2.55,2.06,4.28,2.17.52.03.73.22.76.8.05,1.07-.24,2.2,0,3.16.56,2.29.75,4.66,1.62,6.9.72,1.86,1.58,3.68,1.94,5.7.21,1.17.82,2.42,1.61,3.32,1.48,1.68,2.62,3.6,4.15,5.25,1.93,2.09,4.19,3.74,6.41,5.44,1.54,1.18,3.48,1.81,5.05,2.96,1.3.96,2.73,1.67,4.14,2.35,1.21.59,2.5,1.39,4.01.97.3-.08.53.05.74.27,1.6,1.63,3.76,1.75,5.82,2.11,2.35.41,4.75.51,7.07,1.13,1.86.5,3.8.42,5.67.76,1.02.19,1.99-.27,3.02-.04,2.78.64,5.57.38,8.36-.04.68-.1,1.27-.44,1.93-.51,3.19-.38,6.33-.91,9.3-2.23.3-.13.67-.18,1.02-.22.93-.11,1.9.08,2.81-.45,1.32-.77,2.73-1.38,4.25-1.65.86-.15,1.69-.25,2.3-1.07.29-.4.73-.98,1.13-1.07,1.34-.34,2.3-1.28,3.48-1.87,1.48-.74,2.92-1.5,4.03-2.79.33-.39.84-.63,1.46-.69.95-.08,1.7-.58,2.12-1.53.31-.69.88-1.19,1.51-1.61.78-.52,1.81-.61,2.48-1.19.98-.85,2.15-1.51,2.86-2.66,1.06-1.71,3.36-1.84,4.54-3.7.87,2.38,1.65,4.61,2.51,6.8.47,1.18.75,2.42,1.64,3.45,2.01,2.31,4.27,4.35,6.63,6.26,2.93,2.37,5.93,4.78,10.01,4.57,1.32-.07,2.55.5,3.92.12,1.28-.35,2.47-1,3.85-1.1,2.62-.19,4.95-1.35,7.2-2.58.83-.45,1.76-.66,2.51-1.22,1.58-1.19,2.74-2.85,4.43-3.93.31-.2.54-.59.69-.95.95-2.2,2.29-4.18,3.55-6.19.22-.36.35-.75.5-1.14,1-2.59,1.88-5.22,2.92-7.8,1.43-3.53,2.97-7.01,4.36-10.56.2-.52.07-1.17.4-1.42,1.9.44,3,2.14,4.93,2.21.46.02.63.28.65.79.05,1.07-.25,2.2-.01,3.16.56,2.29.66,4.68,1.64,6.89.75,1.69,1.35,3.46,1.83,5.25.36,1.38.88,2.75,1.72,3.76,1.44,1.75,2.64,3.68,4.21,5.36,1.92,2.05,4.15,3.67,6.33,5.35,1.53,1.18,3.49,1.81,5.05,2.96,1.3.96,2.74,1.65,4.14,2.35,1.2.6,2.5,1.39,4.01.98.3-.08.53.05.75.26,1.66,1.57,3.82,1.78,5.93,2.11,2.24.34,4.51.58,6.72,1.08,1.99.45,4.01.49,6.01.81.99.16,1.92-.27,2.91-.03,2.78.66,5.57.38,8.36-.03.68-.1,1.27-.43,1.93-.51,3.19-.38,6.33-.91,9.3-2.23.3-.13.65-.19,1.02-.23.89-.08,1.81.06,2.7-.4,1.55-.81,3.14-1.56,4.94-1.77.43-.05,1-.11,1.37-.54.68-.79,1.38-1.49,2.42-1.91,1.23-.5,2.29-1.4,3.5-1.97,1.05-.5,1.92-1.17,2.73-1.96.51-.5,1-.95,1.8-1.02.96-.08,1.68-.6,2.13-1.53.33-.71.95-1.19,1.6-1.66.82-.58,1.89-.6,2.6-1.25,1.29-1.17,2.55-2.37,3.72-3.67.36-.4,1.08-1.13,1.79-.62.64.45,1.24,1.08,1.09,2.04-.04.27-.04.56.17.78.91.96,1.85,1.91,2.75,2.89,1.63,1.77,3.44,3.41,5.45,4.64,1.76,1.07,3.89,1.64,5.92,2.15,1.95.49,3.98.71,5.95,1.18.52.12,1.12.09,1.64.16,1.95.25,3.66-.95,5.63-.72.83.09,1.85-.22,2.78-.6,1.29-.53,2.45-1.29,3.7-1.86,1.27-.58,2.76-.77,3.79-1.8,1.36-1.37,2.63-2.84,3.82-4.37,1.41-1.81,2.21-3.96,3.36-5.91.51-.86,1.1-1.79,1.48-2.81.63-1.68,1.12-3.47,2.33-4.92.66-.8,1.12-1.71,1.41-2.78.36-1.34.56-2.81,1.62-3.95.23-.25.39-1,.45-1.6.17-1.65.71-3.25,1.88-4.6.89,1.98.42,4.03.79,5.98.3,1.56-.22,3.2.43,4.71.68,1.57,1.55,3.08,1.26,4.91-.05.32.09.74.29,1.01,1.44,1.99,2.08,4.4,3.45,6.43.97,1.43,1.77,3.02,3,4.22,1.12,1.09,2.12,2.37,3.54,3.16,1.75.97,2.31,3.3,4.42,3.92.64.19,1.09.76,1.54,1.27.2.23.47.44.75.56,2.57,1.14,5.28.28,7.92.47.58.04,1.23-.12,1.86-.08,1.63.12,3.29-.17,4.68-.82,1.4-.66,2.76-1.37,4.24-1.87,1.52-.51,3.19-.91,4.26-2.15,1.41-1.63,3.38-2.55,4.77-4.16h0c.53-1,1.05-1.99,1.58-2.99-.02-.07-.04-.13-.06-.2.09.03.18.05.27.08.25.14.41.08.48-.21.34-.46.68-.91,1.02-1.37h-.02c.85-1.52,1.93-2.91,2.34-4.65.12-.52.34-1.05.61-1.51.21-.35.37-.79,1.01-.2.78.72,1.28,1.68,2.24,2.27,1.23.77,2.49,1.49,3.52,2.61.8.87,1.8,1.7,3.1,1.9.21.03.47.19.58.36.93,1.47,2.35,2.14,3.96,2.53.18.19.38.16.6.08.44.25.98.36,1.23.87.01.15.07.22.23.15.08.13.16.25.24.38.8.77,1.81,1.15,2.81,1.56.18.14.37.18.59.08-.02-.02-.03-.03-.05-.05.01.01.03.02.04.03,1.25,1.15,2.95,1.59,4.43,1.94,3.62.86,6.77,2.88,10.37,3.76,1.35.33,2.62,1.12,4.05,1.39,1.18.23,2.34.68,3.48.95,1.53.36,3.17.13,4.81.43,1.99.37,4.2.23,6.29-.27,1.29-.3,2.63-.64,3.93-.57,2.92.17,5.41-1.41,8.21-1.72,1.7-.19,3.21-1.13,4.81-1.72.77-.28,1.57-.42,2.27-.91,2.8-1.95,5.98-3.19,8.99-4.74,1.09-.56,1.91-1.52,3.08-2.02,1.51-.65,3.09-1.32,4.32-2.36,1.17-.99,2.34-2.04,3.42-3.13,2.24-2.25,4.27-4.68,6.21-7.2.63-.81,1.16-1.72,2.11-2.24,1.73-.95,2.37-2.72,3.33-4.27.75-1.19.73-2.72,1.82-3.77,1.46-1.41,2.01-3.37,2.67-5.18.65-1.78.89-3.72,1.2-5.61.21-1.31.55-2.55,1.17-3.72.5-.94.78-1.94.64-3.03-.07-.58-.16-1.19-.04-1.74.53-2.4.03-4.85.4-7.27.23-1.48-.1-3-.22-4.51-.16-2.14-.61-4.21-.93-6.32-.27-1.83-1.21-3.52-1.23-5.39-.02-1.79-1.16-3.26-1.32-5.05-.08-.89-.71-1.86-.88-2.87-.04-.27-.17-.53-.3-.77-.82-1.47-1.59-2.96-2.5-4.38-.86-1.34-1.23-2.95-2.24-4.15-1.19-1.42-1.81-3.2-3.24-4.51-.73-.67-1.4-1.54-2.1-2.32-1.45-1.61-3.5-2.68-4.44-4.77-.06-.14-.35-.16-.5-.28-1.61-1.34-3.21-2.69-4.81-4.04.01-.11.03-.22.04-.33,1.55.47,2.93-.2,4.38-.4,1.45-.2,2.9-.41,4.33-.81,1.2-.34,2.25-1.05,3.48-1.22,1.21-.17,2.27-.62,3.09-1.5.43-.46.91-.8,1.41-1.16,1.18-.85,2.9-1.42,3.5-2.47.83-1.45,2.39-2.01,3.12-3.56.77-1.63,2.17-3.01,2.85-4.75.27-.69.31-1.43.95-1.98.85-.73,1.44-1.61,1.12-2.86-.06-.25.17-.6.32-.87.88-1.54,1.16-3.2,1.32-4.95.1-1.03-.12-2.07.02-3.02ZM405.94,100.11c.36-1.1-.2-2.26-.05-3.4.04-.31-.09-.66.25-.81.37-.16.44.26.57.46,1.7,2.66,4.16,4.65,6.28,6.93.29.31.54.57.69,1.02.22.67.74,1.16,1.48,1.42.99.34,1.96.73,2.59,1.68.31.46.66.94,1.27,1.22-2.4.17-4.65-.76-7.04-.43-2.31.32-4.51,1.26-6.95.9.64-2.82-.09-5.97.91-8.98ZM211.62,47.66c-.94.64-1.6,1.45-2.13,2.41-.51.94-1.09,1.73-2.01,2.4-.76.56-1.39,1.31-2.35,1.55-1.04.26-1.85.94-2.7,1.49-.84.54-1.68.18-2.5.37-3.17.73-6.4.96-9.64,1.05-3.23.1-6.24-.83-9.19-2-.87-.34-1.22-1.41-2.13-1.68-.78-.23-1.46-.6-1.9-1.24-1.16-1.68-3-2.73-4.16-4.39-1.28-1.84-2.08-3.93-3-5.95-.28-.61-.53-1.2-.69-1.86-1-4.24-.65-8.35.89-12.44.53-1.42.69-3,1.35-4.41,1.01-2.16,1.84-4.43,3.1-6.43,1.44-2.29,3.38-4.22,5.87-5.46.64-.32.98-.92,1.53-1.28,1.39-.91,2.83-1.61,4.5-2.05,1.93-.51,3.96-.67,5.81-1.6.75-.37,1.78.27,2.72.24.53-.02,1.06.07,1.61,0,.95-.13,1.84.07,2.78.34,1.38.39,2.85.55,4.28.74,1.66.22,2.97,1.3,4.57,1.59.18.03.34.33.47.53.86,1.34,2.02,2.25,3.48,2.94,1.01.47,1.66,1.56,2.35,2.47,1.6,2.12,2.3,4.71,3.52,7.04.19.36.11.85.12.96-.33,2.38.14,4.39.31,6.41.06.69-.08,1.35-.14,1.99-.25,2.72-.43,5.51-1.88,7.93-1.14,1.9-1.78,4.01-2.8,5.97-.52.99-1.17,1.8-2.04,2.39ZM224.56,77.94c-.05-.23-.09-.51-.24-.67-1.94-2.1-2.4-4.95-3.71-7.38-1.2-2.21-2.47-4.43-3.12-6.95-.32-1.21-1.52-2.17-2.07-3.36-.82-1.78-2.09-3.57-.66-5.68.55-.81,1.49-1.03,2.08-1.84,1.1-1.51,2.47-2.82,2.93-4.72.25-1,1.19-1.65,1.54-2.56,1.44-3.87,3.07-7.7,3.28-11.92.02-.5.21-.92.43-1.35.2-.39.31-.82.52-1.21.35-.64-.82-.97-.47-1.17.71-.39.44-.7.25-1.18-.37-.9-.12-1.88-.27-2.82-.37-2.25-.45-4.56-1.48-6.66-.45-.91-.4-1.97-1.14-3.13,2.89.16,5.5.39,7.71,2.1,1.82,1.41,3.75,2.7,5.24,4.5,2.28,2.76,4.49,5.56,5.92,8.89.45,1.04,1.26,1.88,1.76,2.95,1.21,2.54,1.69,5.33,2.93,7.83.32.65.83,1.2,1.05,1.92.07.23.26.42.29.65.12,1.01.52,1.9.91,2.85.59,1.44.8,3.05,1.14,4.59.11.52.39.94.62,1.4.51,1.03,1.21,1.98.78,3.31-.18.56.26,1.26.49,1.89.47,1.28,1.17,2.42,1.17,3.95,0,1.17.68,2.47,1.15,3.66,1.23,3.08,2.22,6.25,2.02,9.51-.13,2.18.99,3.83,1.27,5.78.2,1.37.43,2.73.93,4.03.19.5.42.95.86,1.24,1.02.68,2.17,1.1,3.23,1.71.87.5,2.44-.34,2.61-1.41.34-2.16,1.65-4.01,1.98-6.11.47-3.07,1.85-5.79,2.8-8.68.4-1.22.65-2.51.81-3.79.1-.83.64-1.41.89-2.16,1.57-4.61,2.76-9.33,4.16-13.99.33-1.11.66-2.19,1.23-3.2.35-.62.24-1.34.4-1.97.38-1.49.97-2.92,1.48-4.38.38-1.07.58-2.19,1.02-3.26.66-1.64,1.67-3.15,2.21-4.78.77-2.34,2.19-4.26,3.24-6.41,1.21-2.49,3.08-4.51,4.92-6.48,1.96-2.09,4.28-3.82,7.04-4.89,1.27-.49,2.57-1.05,3.68-1.9.53-.41,1.17-.18,1.73-.32,2.17-.57,4.37.19,6.55-.15.49-.08,1.06.27,1.57.47,1.98.77,4.01,1.47,5.58,3.01.51.5,1.3.57,1.78,1.15,1.24,1.49,2.25,3.08,2.86,4.95.57,1.73,1.44,3.34,1.48,5.23.07,3.4-.51,6.66-1.81,9.79-.21.51-.41,1.04-.49,1.57-.19,1.33-.56,2.55-1.19,3.77-.84,1.64-1.5,3.39-1.99,5.16-.41,1.47-1.39,2.6-1.94,3.98-.44,1.08-.83,2.29-1.84,3.1-.23.18-.37.53-.45.83-1.33,4.53-4.09,8.38-6,12.62-.15.32-.36.62-.59.9-1.69,2.09-2.5,4.64-3.59,7.03-.39.87-.84,1.69-1.44,2.4-.83.98-1.36,2.04-1.82,3.26-.85,2.28-1.87,4.51-3.05,6.66-.86,1.58-2.03,3-2.59,4.74-.23.71-.82,1.16-1.22,1.75-.78,1.14-.61,2.6-1.47,3.71-.78,1-1.35,2.14-1.71,3.38-.19.66-.67.17-.96.04-.93-.4-1.82-.89-2.77-1.28-1.73-.7-3.5-.61-5.27-.76-.9-.08-1.81-.16-2.71-.25-.11-.01-.25-.13-.33-.1-3.04,1.15-6.45,1.15-9.31,2.89-1.04.64-1.97,1.41-3.24,1.67-.82.17-1.28,1.01-1.84,1.62-.55.61-1.07,1.07-2.08,1.03-.92-.04-1.72.67-2.29,1.46-.52.73-1.11,1.29-2.05,1.43-.73.11-1.27.56-1.83,1.02-1.42,1.16-3.29,1.21-4.93,1.86-1.32.52-2.76.95-4.11,1.28-2.38.58-4.45,1.98-6.88,2.28-.4.05-.86.53-1.18.04-.23-.35-.15-.88.05-1.27,1.43-2.81,1.59-5.88,1.8-8.94.01-.19-.02-.42-.12-.57-.6-.91-.85-1.94-1.07-2.98-.46-2.22-1.77-3.92-3.38-5.44-.45-.43-.87-.86-.75-1.64.07-.42-.14-1.03-.45-1.32-.92-.89-1.32-2.11-1.76-3.17-.99-2.38-2.43-4.5-3.44-6.84-.12-.28-.04-.63-.08-.95-.11-.87-.18-1.75-1.07-2.26-.16-.09-.35-.28-.38-.44-.23-1.54-1.44-2.66-1.78-4.16ZM251.99,128.43c.36.55.26,1.41.37,2.12.27,2.35-.76,4.49-1.12,6.72-.13.79-.82,1.5-1.31,2.21-.58.84-1.35,1.56-1.6,2.62-.07.29-.3.67-.54.75-1.47.5-2.6,1.76-4.17,1.97-2.66.36-5.25.2-7.32-1.79-.91-.87-1.09-2.17-1.55-3.28-.78-1.86-1-3.88-1.44-5.83-.14-.62.28-1.06.44-1.57.63-2.03.79-4.18,1.67-6.15.23-.52.53-.96.98-1.08,2.68-.74,5.22-1.95,7.99-2.39.94-.15,1.88-.5,2.76-.9.73-.33.98.07,1.46.49,1.88,1.63,2.12,4.14,3.39,6.1ZM251.05,113.85s.04-.05.07-.07c.02.02.05.04.07.06-.01.03-.02.05-.03.08l-.1-.07ZM203.52,116.52c1.67-3.15,3.43-6.26,5.28-9.31.78-1.3,1.64-2.62,3.15-3.29.33-.15.6-.52.87-.86.9-1.13,1.9-2.09,3.63-1.68.7.16,1.64-.02,2.28-.38,1.08-.59,2.24-.38,3.35-.59.94-.18,1.92-.08,2.82.39.85.44,1.77.73,2.69,1.02.83.26,1.63.95,2.22,1.63,1.42,1.67,2.53,3.46,2.82,5.78.34,2.66-.49,5.18-.52,7.78,0,.43-.18.86-.24,1.29-.22,1.61-.21,1.61-2.09,1.66-1.35.18-2.84.69-4.16,1.82-.94.8-2.28,1.12-3,2.22-1.01,1.55-2.29,2.87-3.07,4.66-1.12,2.58-1.39,5.33-2.25,7.91-.87,2.59.42,5.01-.17,7.48-.11.48.31.8.57,1.11.82.98.54,2.29,1.12,3.38.61,1.16,1.54,2.11,2.04,3.33.24.59.39,1.03-.16,1.58-.75.76-.62,1.97-1.41,2.8-1.5,1.57-3.06,2.85-5.4,2.45-.49-.08-1.07.15-1.24.27-1.23.91-2.44.39-3.67.16-.39-.08-.78-.25-1.17-.24-2.68.09-4.53-1.36-6.15-3.25-.08-.09-.13-.22-.22-.27-1.57-.96-2.35-2.44-2.89-4.13-.44-1.35-1.57-2.49-1.05-4.13.12-.36-.22-.92-.45-1.32-.64-1.14-.33-2.36-.25-3.51.22-3.24.63-6.46,1.09-9.68.22-1.53.52-2.95,1.38-4.23.08-.12.16-.29.14-.43-.23-1.48.51-2.65,1.17-3.86.47-.87.77-1.81.99-2.78.38-1.69,1.15-3.26,1.95-4.77ZM59.12,73.99c-.31-.78-.6-1.53-1.13-2.16-1.13-1.35-1.26-3.14-2.08-4.64-1.11-2.03-2.09-4.12-3.12-6.19-.09-.18-.25-.34-.27-.53-.22-2.2-1.87-3.65-2.85-5.45-.47-.87-.82-1.86-1-2.73-.57-2.7-2.09-4.96-3.12-7.43-1.04-2.5-1.48-5.17-2.56-7.64-.2-.45-.15-.87-.08-1.26.33-1.78-.04-3.51-.39-5.22-.51-2.54-.17-5.05.12-7.56.5-4.27,3.28-7.14,6.33-9.77.93-.8,2.21-.99,3.35-1.37.74-.25,1.26-.97,2.2-.82,1.92.31,3.93-.76,5.84.36.33.19.87-.01,1.28.1,1.03.27,2,.64,2.86,1.36,1.79,1.51,3.81,2.76,5.33,4.58,2.3,2.74,4.49,5.56,5.93,8.88.47,1.08,1.29,1.96,1.82,3.06,1.17,2.47,1.66,5.16,2.82,7.63.28.59.75,1.02.97,1.7.89,2.83,2,5.58,2.51,8.52.07.38.27.75.46,1.09.65,1.12,1.33,2.18.9,3.62-.14.48.22,1.14.44,1.68.54,1.35,1.2,2.58,1.26,4.16.04,1.14.69,2.38,1.11,3.55,1.05,2.9,2.18,5.81,1.98,8.92-.14,2.31.8,4.26,1.3,6.37.32,1.34.44,2.72.94,4.03.22.59.52,1.09,1.04,1.4,1.02.6,2.12,1.01,3.16,1.58.82.46,2.37-.37,2.51-1.4.31-2.17,1.67-4.01,1.97-6.12.45-3.12,1.92-5.86,2.84-8.79.37-1.19.63-2.44.78-3.67.1-.83.6-1.46.9-2.15,1.39-3.22,1.72-6.75,3.03-10,.63-1.56.93-3.27,1.31-4.92.24-1.04.98-1.83,1.25-2.84.09-.33.43-.62.07-1.08.3-.41,0-1.03.34-1.45.9-1.08,1.01-2.5,1.36-3.73.49-1.71,1.16-3.33,1.72-5,.33-.97,1.31-1.48,1.47-2.54.36-2.37,2.05-4.13,2.99-6.25.85-1.91,2.39-3.33,3.61-4.98,1.62-2.19,3.68-3.96,5.68-5.75,1.07-.95,2.6-1.39,3.94-2.03.31-.15.77-.04,1.02-.23,1.82-1.39,3.98-1.27,6.03-1.21,2.22.07,4.47-.14,6.53,1.54,1.34,1.09,2.84,2.14,4.31,3.13,1.12.76,1.34,2.13,1.95,3.23,1.18,2.14,1.82,4.49,2.38,6.82.46,1.88.62,3.87.1,5.81-.17.63-.07,1.25-.1,1.87-.01.22.12.43-.03.68-.93,1.56-.66,3.37-1.08,5.03-.34,1.37-.74,2.79-1.42,4.01-1.53,2.74-2.2,5.85-3.77,8.57-.24.41-.4.84-.71,1.22-.59.71-1,1.53-1.15,2.45-.14.86-.39,1.64-.9,2.38-1.33,1.88-2.05,4.08-3.17,6.08-.98,1.75-2.01,3.46-3.05,5.17-1.05,1.71-1.97,3.63-2.59,5.62-.28.9-.78,1.71-1.39,2.42-.92,1.06-1.54,2.2-1.99,3.57-.72,2.15-1.85,4.17-2.85,6.23-.85,1.76-1.86,3.46-2.87,5.12-1.28,2.1-2.19,4.39-3.54,6.42-.44.66-.38,1.43-.75,2.09-.25.46-.49.56-.93.3-1.9-1.1-3.88-1.9-6.13-1.98-1.69-.06-3.42-.44-5.06-.33-1.32.09-2.73.54-4.06.94-1.85.55-3.84.79-5.44,2-.9.68-1.81,1.23-2.93,1.48-.76.17-1.2.88-1.69,1.44-.63.71-1.18,1.3-2.33,1.26-.9-.03-1.69.72-2.26,1.5-.5.67-1.04,1.25-1.95,1.36-.73.09-1.26.55-1.83,1-1.46,1.14-3.34,1.29-5.03,1.9-1.32.47-2.7.95-4,1.26-2.42.58-4.52,2.01-7,2.31-.37.05-.81.45-1.08.04-.26-.4-.16-.94.06-1.38,1.43-2.82,1.57-5.89,1.77-8.94.01-.18-.06-.41-.17-.55-.73-.99-.84-2.21-1.14-3.34-.52-1.99-1.7-3.51-3.15-4.89-.46-.44-1.02-.87-.84-1.72.08-.37-.11-.94-.39-1.22-.89-.9-1.26-2.11-1.75-3.18-1.1-2.4-2.43-4.67-3.54-7.05-.11-.23-.03-.55-.06-.83-.09-.87-.16-1.75-1.03-2.28-.16-.1-.34-.27-.39-.44-.38-1.36-1.2-2.53-1.7-3.82ZM86.69,124.95c0,.4-.07.86.05,1.26.38,2.35-.67,4.49-1.03,6.72-.13.79-.82,1.5-1.3,2.22-.58.85-1.36,1.55-1.61,2.62-.07.31-.35.72-.64.82-1.24.47-2.26,1.37-3.5,1.79-.83.28-1.76.59-2.64.08-.43-.25-.75.09-1.13.13-1.65.19-4.57-1.86-5.12-3.47-.81-2.38-1.59-4.76-1.92-7.27-.04-.27-.16-.56-.04-.81,1.06-2.27,1-4.86,2.07-7.13.24-.51.52-.96.96-1.09,2.64-.74,5.15-1.9,7.87-2.38,1.06-.19,2.09-.61,3.11-.97.32-.11.61-.25.84.08,1.04,1.44,2.52,2.65,2.78,4.53.15,1.1,1.23,1.71,1.24,2.87ZM85.51,109.53s.06-.05.09-.08c.02.03.07.07.06.1,0,.03-.06.05-.09.08-.02-.03-.07-.07-.06-.1ZM38.66,111c1.63-2.68,2.81-5.61,4.62-8.17.85-1.21,1.62-2.51,3.08-3.21.61-.29,1-1.03,1.5-1.56.62-.65,1.34-1.26,2.28-1.06,1.07.22,2.11,0,3-.33,1.11-.43,2.24-.38,3.35-.57.93-.16,1.91-.14,2.83.36.84.45,1.76.73,2.68,1.03.87.28,1.71.97,2.31,1.7,1.39,1.68,2.5,3.47,2.79,5.79.33,2.67-.52,5.18-.54,7.78,0,.43-.18.86-.23,1.29-.2,1.56-.19,1.57-2.22,1.61-1.14.18-2.74.53-3.95,1.81-.3.32-.71.31-1.04.54-2.28,1.57-3.67,3.79-5.01,6.18-1.17,2.09-1.48,4.35-2.02,6.54-.5,2.03-1.37,4.17-.39,6.36.11.24.09.56.04.83-.28,1.37.2,2.49.75,3.75.57,1.3.76,2.79,1.63,4.01.44.63.95,1.21,1.24,1.95.22.55.37.96-.15,1.48-.78.78-.63,2.06-1.48,2.9-1.5,1.47-3.01,2.83-5.31,2.42-.55-.1-1.14.16-1.35.3-1,.66-1.96.48-2.98.27-1.05-.21-2.11-.46-3.18-.54-2.17-.16-3.37-1.73-4.75-3.06-.08-.08-.12-.23-.21-.28-1.49-.95-2.35-2.37-2.88-4-.46-1.42-1.66-2.64-1.1-4.36.12-.36-.24-.9-.46-1.32-.61-1.18-.28-2.43-.2-3.63.21-3.2.63-6.38,1.08-9.56.21-1.46.52-2.79,1.27-4.03.12-.21.3-.36.26-.63-.19-1.38.39-2.52,1.09-3.64.31-.49.56-1.06.7-1.62.62-2.59,1.61-5.02,2.99-7.29ZM20.55,154.33c-1.06-.85-2.14-1.33-3.66-1.12-1.92.27-3.5-.53-4.55-2.39-.47-.84-1.45-1.41-2.24-2.05-.61-.5-1.08-1.05-1.18-1.85-.08-.65-.44-1.17-.79-1.68-.16-.24-.32-.45-.28-.75.28-1.03-.17-1.9-.61-2.78-.12-.24-.17-.53-.21-.8-.25-1.62,0-3.32-.83-4.87-.57-1.04.28-1.94.5-2.91.45-1.96.86-3.96.93-5.96.05-1.29.84-2.21,1.05-3.38.33-1.88,1.23-3.58,1.82-5.38.11-.33.24-.74.49-.92,1.56-1.11,1.58-3.01,2.43-4.47.84-1.45,1.86-2.85,3.05-4.03,1.56-1.57,3.27-3.03,5.09-4.28.86-.59,1.86-1,2.73-1.68.75-.59,1.65-1.07,2.83-.78,1.13.28,2.21-.6,3.43-.49,1.62.15,3.13.81,4.75.98.29.03.4.27.32.63-.39,1.64-.98,3.19-2.05,4.51-.89,1.1-1.43,2.42-1.76,3.73-.85,3.34-2.48,6.39-3.38,9.71-.49,1.8-1.49,3.46-1.64,5.34-.31,3.78-1.2,7.47-1.27,11.31-.05,3.01.94,5.7,1.32,8.55.14,1.07.48,2.04.92,2.99.23.48.14.62-.3.89-.86.55-1.69,1.19-2.18,2.14-.19.38-.5.57-.87.76-.73.36-1.53.52-2.2,1.08-.39.33-1.08.39-1.65-.07ZM122.64,149.02c-.44,2.6-1.26,5.19-1.3,7.79-.05,2.87-1.88,5.45-1.1,8.39.12.44-.28.76-.64,1.13-.96.98-2.67,1.46-2.48,3.33.04.4-.38.57-.71.73-2.06.96-3.5,2.78-5.43,3.93-.35.21-.47.8-.71,1.21-.93,1.56-2.37,2.53-4.02,3.11-.56.2-.79.6-1.19.89-1,.71-1.82,1.68-3.09,2.02-.41.11-.83.52-1.07.91-.62,1-1.51,1.61-2.54,2.11-1.95.95-3.78,2.13-5.57,3.35-.64.44-1.31.78-2.08.75-.54-.02-1.1,0-1.46.36-1.1,1.09-2.64,1.23-3.92,1.91-1.17.62-2.5.65-3.7.71-1.4.07-2.6.47-3.8,1.02-.93.42-1.88.5-2.89.51-1.69.02-3.39.29-5.02.55-1.62.26-2.95-.53-4.43-.43-1.77.13-3.52-.23-5.27-.05-.39.04-.7.01-1-.18-1.43-.93-2.92-1.27-4.66-.95-.86.16-1.81-.22-2.71-.56-1.23-.47-2.55-.86-3.76-1.34-1.76-.71-3.86-.76-5.21-2.36-.45-.54-1.24-.59-1.67-.61-1.66-.07-2.67-1.25-3.97-1.93-.44-.23-.82-.57-1.33-.7-.82-.21-1.49-.56-2.01-1.33-.74-1.09-2-1.65-3.02-2.46-1.84-1.46-3.3-3.19-4.42-5.25-.49-.9-1.11-1.72-1.65-2.59-.77-1.24-.52-2.75-1.1-4.07-.59-1.35-1.04-2.76-1.54-4.15-.41-1.13-.33-2.33-.54-3.49-.07-.37.49-.62.77-.61.76.04,1.35-.41,2.05-.52,2.28-.36,3.91-1.72,5.2-3.54.23-.32.55-.58.79-.89.52-.69.99-.61,1.53,0,2.27,2.56,5.15,4.06,8.47,4.78.19.04.46,0,.58.11,1.53,1.45,3.36.94,5.11.74,1.5-.18,2.93-.8,4.53-.32.8.24,1.54-.48,2.26-.84,2.63-1.31,5.1-2.81,6.51-5.58.51-.99,1.71-1.21,2.63-.31.88.86,1.86,1.55,2.96,1.9,1.16.37,1.65,1.5,2.81,1.88,3.54,1.17,7.06,2.07,10.79,1.02.34-.09.7-.15,1.05-.12.82.06,1.57.22,2.44-.08.98-.33,2.02-.79,3.18-.43.89.28,1.44-.66,2.2-.95,1.85-.7,3.82-1.03,5.56-2.17,2.91-1.92,5.33-4.25,7.29-7.11.99-1.44,2.27-2.64,3.28-4.08,1.46-2.1,2.34-4.46,3.39-6.75.15-.33.02-.78.02-1.17.06-.92.17-1.87-1.11-2.13-1.05-.21-2.2.18-2.72,1.31-.44.95-1.33,1.58-1.89,2.48-1.03,1.65-2.07,3.35-3.52,4.68-1.29,1.18-2.26,2.67-3.75,3.68-.58.39-.9,1.31-1.52,1.73-2.13,1.45-4.27,2.89-6.96,3.22-.91.11-1.77.75-2.68.84-2.48.26-4.98.67-7.45-.05-.35-.1-.7-.05-.89.09-.27.21-.48.22-.75.13-2.56-.87-5.43-.99-7.41-3.24-.66-.74-1.66-1.23-2.53-1.59-1.58-.65-2.15-1.92-2.69-3.27-.36-.91-1.04-1.6-1.47-2.42-1.03-1.94-1.44-4-1.48-6.25-.03-1.66-.01-3.26.28-4.89.36-1.96,1-3.74,2.46-5.2.74-.74.89-1.98,2.07-2.45.4-.16.9-.52,1.17-.37.38.22-.23.55-.25.87-.12,1.79-1.03,3.36-1.36,5.08-.2,1.04-.19,2.24,0,3.11.48,2.09.73,4.25,1.67,6.28,1.03,2.21,2.43,4.1,3.95,5.92.75.9,1.88,1.34,2.97,1.7,2.88.96,5.79,1.08,8.72.2,2.15-.64,4.05-1.77,5.87-3.01.57-.39,1.25-.64,1.72-1.17,1.45-1.66,3.06-3.21,3.81-5.35.72-2.04,2.14-3.84,2.27-6.07.12-1.98.64-3.88.43-5.95-.11-1.04-.26-2.21-.6-3.05-.68-1.63-1.24-3.38-2.4-4.79-.57-.69-.82-1.25.18-1.87.85-.52,1.59-1.18,2.67-1.17.37,0,.71-.24.91-.52.94-1.3,2.55-1.73,3.63-2.88.39-.42,1.23-.24,1.77-.74,1.31-1.2,2.91-1.95,4.54-2.63.75-.31.97-1.13,1.68-1.45,1.66-.76,3.34-1.41,5.23-1.03.37.08.7-.11,1.04-.16,2.22-.33,4.35-.12,6.22,1.23.63.45,1.38.56,2.06.78,1.19.4,2.15.97,3,1.89,1.03,1.11,2.15,2.13,3.44,2.98,1.95,1.28,2.82,3.43,3.92,5.36.25.44.39.98.74,1.32.95.95.62,1.91.15,2.9-.6,1.25-1.05,2.57-1.55,3.85-.93,2.4-1.61,4.9-2.34,7.37-.19.66-.42,1.29-.75,1.88-1.09,1.93-1.65,4.08-2.35,6.14-1.04,3.08-1.99,6.22-2.54,9.45ZM169.37,122.04c-.16.06.02,1.39-.39,2.12-1.6,2.83-2.2,5.92-2.53,9.14-.19,1.89-.78,3.77-.76,5.7.04,3.05.06,6.06,1.11,9.07.79,2.26,1.94,4.37,2.59,6.67.34,1.22.74,2.45-.59,3.49-.58.46-.58,1.39-.67,2.12-.23,1.86-.93,3.54-1.65,5.23-.6,1.4-.96,2.89-1.42,4.33-.57,1.8-1.28,3.64-2.46,5.19-.57.74-.86,1.58-1.2,2.42-.6,1.49-1.12,3.04-1.91,4.43-1.3,2.25-2.87,4.37-4.71,6.16-1.95,1.91-4.24,3.81-7.08,3.89-2.59.06-5.16.71-7.86-.1-1.78-.53-3.41-.99-4.97-2.09-1.51-1.07-3.18-2-4.39-3.35-.97-1.09-2.37-2-2.61-3.66-.19-1.29-1.07-2.29-1.53-3.49-.84-2.15-.71-4.26-.48-6.4.27-2.49.19-4.99.39-7.48.09-1.11.45-2.16.61-3.26.45-3.09.32-6.29,1.37-9.25.92-2.59,1.18-5.31,2-7.9.42-1.33.91-2.63,1.37-3.94.79-2.22,1.53-4.47,2.41-6.66.72-1.77.83-3.74,1.66-5.43,1.24-2.51,1.59-5.24,2.36-7.86.02-.08,0-.17.04-.23,1.45-2.58,1.4-5.7,2.93-8.23,1.11-1.83,1.78-3.85,2.85-5.7,1.36-2.36,2.35-4.89,3.01-7.57.33-1.32.7-2.73,1.63-3.82.56-.65.25-1.51.71-2.22,1.48-2.27,2.23-4.94,3.86-7.14.63-.85.5-2.03,1.31-2.89,1.72-1.83,2.67-4.26,4.56-5.96.63-.57,1.17-1.14,1.58-1.9.53-.98,1.74-1.16,2.59-1.79,2.11-1.56,4.44-2.8,6.96-3.62,1.12-.36,2.28-.16,3.41-.42.89-.2,1.68-.75,2.77-.6,1.81-.2,3.5.82,5.34,1.15.47.08.94.12,1.41.18.38.05.85.15.92.44.27,1.12,1.19,1.05,2,1.27.84.23,1.49.69,2.08,1.45,1.05,1.37,1.87,2.87,2.85,4.27.81,1.16,1.15,2.56,1.89,3.75.12.19.02.55-.03.82-.23,1.24-.41,2.4.14,3.69.4.94.35,2.14.26,3.2-.06.65.25,1.19.16,1.82-.43,2.78-1.11,5.49-2.05,8.14-.14.41-.29.78-.89.76-.44-.02-.79.34-1.13.62-.77.65-1.58,1.06-2.64,1.21-.62.09-1.46.5-1.83.98-.71.91-1.72,1.25-2.61,1.8-1.81,1.12-3.1,2.82-4.62,4.25-1.23,1.16-2.54,2.41-3.13,4.08-.93,2.62-2.97,4.63-3.91,7.24-.24.66-.1,1.52-1.1,1.86ZM186.07,158.63c-.47-.45-1.19-.52-1.61-1.08-.18-.24-.55-.42-.83-.18-.45.39-.95.28-1.48.3-1.7-.27-3.24-.71-4.23-2.43-.5-.87-1.48-1.48-2.29-2.15-.6-.5-.84-1.19-1.21-1.83-.98-1.68-.76-3.68-1.69-5.35-.21-.38-.13-.93-.2-1.4-.23-1.39-.07-2.83-.79-4.15-.57-1.04.29-1.94.51-2.91.45-1.96.86-3.96.93-5.95.05-1.29.85-2.21,1.05-3.38.33-1.88,1.22-3.58,1.82-5.38.11-.33.24-.73.49-.92,1.55-1.11,1.58-3.01,2.43-4.46.87-1.48,1.91-2.91,3.12-4.12,1.53-1.54,3.2-2.99,5.01-4.18.91-.6,1.94-1.05,2.82-1.74.83-.65,1.78-1.04,2.93-.73,1.01.28,1.88-.51,2.96-.47,1.73.07,3.29.83,4.98.94.35.02.45.29.36.71-.36,1.66-1.07,3.13-2.05,4.51-1.06,1.5-1.71,3.19-2.08,4.99-.12.58-.28,1.17-.55,1.69-1.3,2.5-1.91,5.24-2.8,7.88-.32.95-.84,1.78-1.03,2.82-.53,2.88-.89,5.78-1.37,8.67-.15.93-.03,1.91-.15,2.85-.44,3.36.49,6.53,1.32,9.71.13.49-.17,1.07.1,1.39,1.5,1.72.12,2.39-.86,3.65-1.11,1.43-2.62,1.92-3.94,2.82-.46.31-1.13.4-1.66-.1ZM285.22,152.17c-.65,2.83-1.37,5.65-2,8.49-.4,1.79-.79,3.56-.97,5.39-.22,2.24-.64,4.48-.26,6.72.23,1.33-.12,2.13-1.32,2.74-1.57.8-2.66,2.3-4.2,3.18-.32.18-.4.75-.63,1.12-.96,1.58-2.41,2.58-4.11,3.16-.56.19-.78.63-1.18.92-.99.73-1.85,1.63-3.1,2-.41.12-.79.56-1.05.94-.61.89-1.38,1.49-2.36,1.96-2.02.98-3.9,2.22-5.77,3.48-.65.44-1.31.75-2.09.7-.63-.04-1.25.11-1.67.49-.86.79-1.96.99-2.94,1.47-1.45.71-2.99.91-4.47,1.04-1.29.11-2.44.38-3.57.94-.97.48-2.03.56-3.1.59-1.65.06-3.31.28-4.93.53-1.63.25-3.02-.55-4.52-.44-1.73.13-3.45-.25-5.16-.05-.49.06-.84-.02-1.21-.27-1.36-.92-2.81-1.16-4.45-.83-.73.15-1.61-.04-2.33-.33-1.52-.62-3.17-1-4.6-1.67-1.64-.77-3.78-.66-4.95-2.41-.1-.15-.42-.2-.65-.23-1.99-.26-3.49-1.54-5.21-2.36-1.68-.79-2.89-2.05-4.34-3.07-2.49-1.75-4.59-3.77-6.08-6.44-.5-.89-1.09-1.73-1.65-2.59-.81-1.23-.51-2.76-1.1-4.07-.63-1.37-1.14-2.81-1.56-4.26-.31-1.09-.47-2.24-.54-3.37-.03-.49.57-.56,1.04-.71,1.6-.51,3.33-.64,4.75-1.74.95-.73,1.69-1.61,2.4-2.53,1.13-1.46,1.21-1.42,2.54-.15,2.14,2.04,4.64,3.5,7.54,4.15.79.18,1.53.41,2.18.82.73.47,1.45.46,2.21.34,1.36-.2,2.74-.29,4.08-.7.51-.15,1.14-.12,1.75.1,1.33.48,2.33-.54,3.37-1.05,2.48-1.24,4.72-2.82,6.03-5.42.44-.87,1.73-1.02,2.58-.16.87.88,1.87,1.56,2.96,1.89,1.17.37,1.63,1.52,2.81,1.89,3.51,1.09,6.99,2.04,10.68,1,.46-.13.91-.15,1.4-.09.68.08,1.35.11,2.09-.1,1-.29,2.02-.82,3.18-.45.92.29,1.45-.65,2.21-.93,1.9-.71,3.89-1.06,5.67-2.21,2.92-1.91,5.31-4.27,7.28-7.12.99-1.43,2.27-2.63,3.28-4.08,1.46-2.1,2.34-4.46,3.37-6.76.13-.29.02-.7.02-1.06.02-.89.25-1.88-1.03-2.19-1.23-.29-2.23.18-2.81,1.32-.48.93-1.33,1.57-1.9,2.48-1.05,1.68-2.09,3.43-3.58,4.77-1.25,1.12-2.08,2.68-3.63,3.46-.38.19-.31.6-.57.86-2.26,2.17-4.83,3.68-7.97,4.19-.92.15-1.77.77-2.68.85-2.48.24-4.98.69-7.46-.06-.34-.1-.69-.05-.88.11-.28.23-.5.19-.76.11-2.57-.83-5.41-1.01-7.41-3.25-.66-.74-1.66-1.24-2.54-1.58-1.39-.53-1.95-1.63-2.47-2.73-.46-.97-.98-1.87-1.54-2.79-1.18-1.92-1.48-4.06-1.62-6.33-.13-2.01,0-3.93.49-5.82.39-1.53.8-3.11,2.16-4.19.3-.24.52-.63.68-1.06.37-1.03,1.26-1.55,2.26-1.89.24-.08.71-.17.47.27-.51.93-.61,2-.9,2.95-.39,1.28-.71,2.65-.79,4.09-.1,1.77.65,3.3.68,4.98.01.86.48,1.59.77,2.37.97,2.62,2.55,4.87,4.49,6.81.86.86,2.04,1.66,3.49,1.48.11-.01.24.04.34.1,2.47,1.41,4.99.56,7.46.07,2.24-.45,4.13-1.75,5.99-3,.57-.38,1.26-.63,1.72-1.17,1.44-1.66,3.06-3.21,3.8-5.35.7-2.01,2.11-3.77,2.25-5.96.12-2.01.66-3.96.45-6.06-.11-1.05-.27-2.21-.61-3.04-.67-1.63-1.23-3.39-2.4-4.79-.58-.7-.76-1.23.19-1.88.84-.57,1.65-1.05,2.68-1.17.32-.04.72-.26.91-.52.95-1.3,2.57-1.71,3.64-2.87.38-.42,1.22-.24,1.77-.74,1.31-1.2,2.91-1.95,4.54-2.62.74-.31.97-1.13,1.68-1.45,1.67-.75,3.34-1.42,5.23-1.02.37.08.7-.11,1.04-.16,2.22-.33,4.35-.12,6.22,1.23.63.45,1.39.61,2.06.77,1.39.33,2.48,1.11,3.26,2.11,1.24,1.6,3.06,2.44,4.43,3.86,1.2,1.25,1.74,2.87,2.66,4.27.09.14.07.41,0,.58-.45,1.32-.78,2.7-1.42,3.92-.71,1.35-1.26,2.73-1.77,4.15-.38,1.06-1.27,1.86-1.56,3-.61,2.33-1.32,4.64-1.99,6.96-.48,1.67-1.27,3.23-1.82,4.89-.92,2.78-2.38,5.41-3.03,8.24ZM292.39,193.57s-.06-.05-.06-.07c0-.02.04-.05.06-.07.02.01.04.02.07.04-.02.04-.04.07-.07.11ZM387.16,174.57c-.87,1.74-1.88,3.39-2.74,5.13-.05.11-.1.23-.18.3-1.66,1.3-2.33,3.44-3.91,4.75-1.82,1.51-3.78,2.85-6.09,3.59-2.27.72-4.46,1.73-6.76,2.27-3.52.82-7.01.95-9.87-1.98-.66-.68-1.64-1.04-2.26-1.8-1.74-2.11-4.29-3.66-4.82-6.62-.18-1.01-.38-1.91-1.4-2.41-.19-.09-.47-.38-.44-.52.33-1.5-1.06-2.6-.91-4.07.08-.8-.22-1.56-.77-2.21-1-1.17-.84-2.68-.81-4,.03-1.6-.52-3.1-.42-4.7.16-2.42.03-4.87,0-7.29-.02-1.46.21-2.96-.14-4.47-.28-1.21-.1-2.61.19-3.85.46-1.97-.07-3.86-.08-5.78,0-1.24-.53-2.13-1.61-2.74-.24-.13-.35-.52-.49-.8-.78-1.59-2.26-1.78-3.55-.54-1.15,1.11-1.45,2.6-1.63,3.99-.28,2.18-1.15,4.14-1.69,6.21-1.21,4.59-3.33,8.8-5.2,13.1-.66,1.52-1.55,2.99-2.08,4.59-.49,1.47-.85,2.99-1.26,4.49-.3,1.11-.42,2.18-1.44,3.09-.77.68-1,2.02-1.38,3.09-.75,2.08-2.11,3.8-3.25,5.65-.39.63-.87,1.19-1.24,1.85-.89,1.55-2.14,2.72-3.71,3.7-2.82,1.76-6.08,2.11-9.08,3.27-.47.18-.84.06-1.3-.25-.68-.46-1.44-.58-2.38-.3-1.18.34-2.42.28-3.74-.05-1.51-.38-2.93-.89-4.38-1.41-.74-.27-1.28-.8-1.92-1.17-4.29-2.5-6.37-6.36-6.94-11.16-.17-1.44.33-2.82.38-4.25.07-2.06.32-4.13.65-6.16.54-3.38,1.01-6.75,2.1-10.04.68-2.07,1.26-4.2,1.9-6.29.62-2.05,1.47-4.04,2.44-5.99.65-1.32,1.24-2.81,1.2-4.41-.05-2.1,1.08-3.88,1.72-5.77.82-2.43,2.2-4.65,2.92-7.14.32-1.08.85-2.14,1.49-3.08.45-.66.46-1.42.7-2.09.89-2.48,2.16-4.83,2.77-7.38.59-2.46,1.9-4.56,3.04-6.72.86-1.64,1.78-3.27,2.61-4.93.55-1.1.96-2.23,1.91-3.13.53-.5.75-1.33.66-2.19-.07-.66.19-1.28.63-1.86,1.57-2.04,2.85-4.25,3.68-6.71.14-.41.47-.81.84-1.14.58-.54.92-1.25.96-2.06,0-.12,0-.25.05-.35.88-1.79,1.69-3.63,2.69-5.36.72-1.23,1.83-2.18,1.98-3.78.1-1.06,1.28-1.68,1.74-2.66.94-1.99,2.03-3.91,3.3-5.71,1.1-1.56,1.57-3.51,2.91-4.91.36-.37.19-.81.39-1.2.81-1.62,1.98-3.01,2.97-4.5.49-.73.96-1.45,1.16-2.27.34-1.37,1.1-2.41,2.08-3.39.57-.57.92-1.36,1.43-2.01,1.84-2.36,3.87-4.58,5.49-7.07,1.5-2.31,3.63-3.97,5.38-6.01,1.14-1.33,2.54-2.43,3.68-3.81,1.3-1.56,3.08-2.7,4.53-4.15,1.44-1.44,3.35-2.13,4.94-3.32.87-.65,2.05-.41,2.97-1.06,1.38-.97,2.97-1.41,4.67-1.45,1.76-.04,3.3-1.11,5.1-1.02.38.02.78-.03,1.17-.01,1.01.04,2.02.21,3.04-.2.67-.27,1.47-.27,2.2.13.54.29,1.13.28,1.74.24,1.58-.12,3,.26,4.04,1.56.07.09.16.2.26.24,1.97.8,3.36,2.47,5.23,3.44.02.12,0,.3.07.33,1.59.78,1.58,2.63,2.54,3.83.38.47.68,1.15.69,1.75.05,1.89.67,3.55,1.67,5.11.73,1.13.98,2.38.85,3.69-.07.71.16,1.33.4,1.96,1.01,2.64.56,5.41.64,8.13.04,1.42-.4,2.82.15,4.25.3.76-.32,1.54-.32,2.33,0,1.53.32,3.1.08,4.58-.33,2.01.06,4-.33,6.04-.4,2.08-.82,4.3-.38,6.49.14.67-.28,1.2-.45,1.79-.31,1.08-.35,2.18-.14,3.26.3,1.57-.48,3.02-.4,4.56.18,3.56-.36,7.06-.92,10.56-.29,1.8-.07,3.61-.03,5.42,0,.19.15.45.07.57-1.27,2-.37,4.19-.53,6.28-.06.74-.14,1.42-.5,2.04-.64,1.08-.86,2.25-.58,3.43.18.74-.44,1.07-.69,1.29-2.17,1.86-4.66,3.41-6.47,5.61-1.68,2.05-3.65,3.9-4.84,6.34-.56,1.15-1.29,2.22-2.05,3.28-1.26,1.76-1.99,3.83-2.88,5.8-.21.47-.34.97-.64,1.4-.42.6-.4,1.36-.64,1.98-.72,1.9-.8,3.78-.76,5.78.02,1.05-.44,2.28-.74,3.42-.32,1.2-.13,2.26.68,3.23.17.2.37.54.32.74-.46,1.6.41,3.02.57,4.53.03.31.19.58.09.93-.42,1.52.06,2.94.54,4.35.09.26.15.5.41.69.77.57,1.09,1.39,1.14,2.33.04.84.3,1.56,1.16,1.92.13.06.3.17.34.29.67,1.89,2.32,3.15,3.16,4.93.08.18.17.38.32.5,1.29,1,1.03,1.96.35,3.32ZM502.73,54.06c-.13.86-.11,1.76-.17,2.6-.15,2.02.23,4.16-.8,6.07-.54,1-.67,2.12-1.02,3.17-.18.54-.4,1.05-.76,1.48-.6.72-1.02,1.52-1.48,2.33-1.73,3.04-4.1,5.48-6.94,7.58-1.44,1.06-3.23,1.25-4.52,2.45-.34.31-.77.11-1.14.13-1.8.06-3.55.55-5.26.96-3.03.72-6.05.87-9.12.83-.32,0-.74.12-.92-.14-1.16-1.74-3.38-2-4.75-3.44-.92-.97-2.28-1.29-3.29-2.25-2.49-2.35-5.75-3.41-8.84-4.73-1.71-.73-3.35-1.62-5.05-2.36-2.01-.87-4.19-1.28-6.17-2.28-.92-.46-3.12.36-3.51,1.2-.51,1.11.08,2.74,1.27,3.4,2,1.12,4.29,1.63,6.2,2.92,1.4.95,2.94,1.85,4.39,2.43,2.31.92,4.2,2.48,6.44,3.48,2.05.91,3.82,2.41,5.46,4.03.98.97,2.15,1.78,3.49,2.42,1.09.52,2.3,1.18,3.22,2.18,1.81,1.95,3.91,3.58,6.07,5.13.5.36.96.79,1.39,1.23,1.87,1.89,4.37,3.14,5.82,5.39,1.35,2.1,3.43,3.64,4.41,5.99.14.34.41.55.74.73.27.14.65.35.71.59.38,1.58,1.76,2.63,2.15,4.23.22.91.84,1.79,1.45,2.54,1.18,1.45,1.8,3.08,1.84,4.91.02,1.12.4,2.17.5,3.27.02.27.07.59.22.8,1.79,2.44,1.66,5.38,2.16,8.16.29,1.59.87,3.12.88,4.78,0,.6.17,1.2-.17,1.73-.5.77-.53,1.63-.22,2.39.75,1.82.27,3.74-.09,5.38-.51,2.29-.62,4.77-1.89,6.89-.1.16-.18.39-.15.56.31,1.93-.79,3.49-1.36,5.19-.32.97-.19,2.08-.93,2.92-.93,1.05-1.41,2.37-2.09,3.57-.79,1.37-1.97,2.53-3.04,3.73-.71.79-1.51,1.5-2.01,2.46-.09.17-.19.38-.35.48-2.31,1.36-3.17,3.98-5,5.71-1.2,1.14-2.43,2.36-3.99,3.12-1.28.63-2.53,1.34-3.68,2.17-1.59,1.15-3.28,2.27-5.05,2.85-1.89.62-2.94,2.43-4.82,2.78-3.04.56-5.59,2.47-8.7,2.93-1.44.21-2.94.62-4.29,1.32-.64.33-1.25-.04-1.84-.13-.6-.1-1.27-.28-1.74.02-1.81,1.15-3.72.37-5.59.45-1.58.07-3.07-.88-4.58-.76-2.37.2-4.35-.98-6.53-1.32-1.55-.24-2.82-.87-4.13-1.57-.14-.08-.3-.18-.44-.17-2.1.21-3.85-.91-5.61-1.69-1.69-.74-3.72-.82-5.05-2.43-.4-.48-1.25-.65-1.93-.82-1.51-.38-2.61-1.59-4.18-1.9-1.22-.24-1.72-1.58-2.72-2.24-.9-.59-1.88-1.07-2.58-2-.38-.51-1.09-.78-1.86-.9-1.28-.2-2-1.38-2.91-2.19-.6-.53-1.09-1.17-1.82-1.56-1.46-.78-2.04-2.31-2.97-3.53-1.11-1.46-2-3.08-2.98-4.63-.88-1.39-1.9-2.73-2.84-4.1-.92-1.34-1.22-2.79-.98-4.35.22-1.38.04-2.82-.5-3.95-.78-1.63-.8-3.32-.88-4.96-.11-2.06-.05-4.18.49-6.23.1-.36.2-.67.44-.94.52-.58.73-1.19.65-2.04-.1-1.06.44-2.13,1-2.98,1.08-1.66,1.67-3.59,2.91-5.16.71-.89,1.61-1.7,2.07-2.71.55-1.2,1.42-2.14,2.22-3.09,1.32-1.58,2.64-3.2,4.6-4.17,1.33-.65,2.33-1.84,3.67-2.58,1.94-1.07,4.05-1.68,6.13-2.06,1.55-.28,3.32-.76,4.79-.45,1.92.4,3.87.44,5.74.87,1.83.42,3.76.82,5.43,1.57,3.27,1.45,6.84,2.07,9.95,4,2.08,1.29,3.67,3.07,5.55,4.54,1.33,1.05,2.82,1.96,3.59,3.51.76,1.54,2.29,2.31,3.31,3.58.9,1.12,1.88,2.08,1.72,3.72-.1,1.06.99,1.37,1.69,1.8,2.14,1.33,2.89,1.31,4.44-.66.82-1.04,1.23-2.52.73-3.92-.7-1.94-1.71-3.72-2.99-5.34-.92-1.16-1.97-2.2-2.82-3.45-.73-1.07-2.06-1.78-2.99-2.82-1.16-1.29-2.42-2.5-3.71-3.66-.91-.81-2.29-1.29-2.84-2.27-.58-1.03-1.39-1.48-2.28-1.84-1.77-.73-3.39-1.78-5.23-2.37-1.07-.34-1.55-1.46-1.98-2.41-.68-1.49-1.76-2.45-3.2-3.11-1.08-.49-1.86-1.43-2.45-2.33-.93-1.42-2.26-2.36-3.42-3.51-1.16-1.15-2.65-1.96-3.37-3.57-.21-.48-.88-.77-1.35-1.13-.37-.29-.9-.48-1.12-.85-.89-1.47-2.4-2.32-3.45-3.61-.34-.41-.65-.61-1.19-.63-.99-.04-1.57-.52-2-1.51-.62-1.44-1.19-2.92-2.32-4.14-.98-1.06-1.61-2.31-.64-3.96.79-1.35.23-3.06.42-4.6.47-3.84.54-7.71.79-11.57.16-2.37.3-4.75.25-7.12-.02-.73.33-1.28.35-1.96.08-2-.24-3.97-.39-5.95-.18-2.46-.35-4.93-.38-7.39,0-.75.45-1.53.97-2.15,1.97-2.38,4.05-4.66,6.38-6.69,1.92-1.67,3.8-3.42,6.19-4.55,1.13-.53,2.38-1.14,3.26-2.18.44-.52,1.21-.47,1.79-.75,1.69-.8,3.33-1.73,5.04-2.49,1.47-.65,2.98-1.24,4.47-1.83,1.45-.58,3.26-.31,4.71-1.15,2.02-1.17,4.35-.99,6.49-1.68.99-.32,2.28.09,3.39-.23,2.58-.75,5.19-.13,7.78-.25.61-.03,1.18.08,1.75.3,1.15.44,2.34.66,3.57.59,3-.18,5.66,1.13,8.42,1.94,1.63.48,3.31.77,4.87,1.5.58.27,1.13.57,1.62.99.24.21.46.51.74.59,2.06.64,3.74,2,5.65,2.88,1.58.74,2.95,1.64,3.98,3,.42.56,1.1.66,1.53,1.11,1.33,1.38,3,2.39,3.94,4.2.42.8,1.3,1.36,1.89,2.18,1.04,1.45,1.68,3.09,2.6,4.58.32.51.82.85,1.08,1.35,1.34,2.58,2.21,5.33,2.81,8.1-.11.56-.22,1.03-.29,1.5Z"/>
      <path class="cls-4" d="M388.85,184.22l.16-.14s-.1.1-.15.15c0,0-.02,0-.02,0Z"/>
      <path class="cls-6" d="M411.9,190.69s-.03-.03-.05-.05c.01.01.03.02.04.03,0,0,.01.02.01.02Z"/>
      <path class="cls-5" d="M503.02,52.56c-.11.56-.22,1.03-.29,1.5-.13.86-.11,1.76-.17,2.6-.15,2.02.23,4.16-.8,6.07-.54,1-.67,2.12-1.02,3.17-.18.54-.4,1.05-.76,1.48-.6.72-1.02,1.52-1.48,2.33-1.73,3.04-4.1,5.48-6.94,7.58-1.44,1.06-3.23,1.25-4.52,2.45-.34.31-.77.11-1.14.13-1.8.06-3.55.55-5.26.96-3.03.72-6.05.87-9.12.83-.32,0-.74.12-.92-.14-1.16-1.74-3.38-2-4.75-3.44-.92-.97-2.28-1.29-3.29-2.25-2.49-2.35-5.75-3.41-8.84-4.73-1.71-.73-3.35-1.62-5.05-2.36-2.01-.87-4.19-1.28-6.17-2.28-.92-.46-3.12.36-3.51,1.2-.51,1.11.08,2.74,1.27,3.4,2,1.12,4.29,1.63,6.2,2.92,1.4.95,2.94,1.85,4.39,2.43,2.31.92,4.2,2.48,6.44,3.48,2.05.91,3.82,2.41,5.46,4.03.98.97,2.15,1.78,3.49,2.42,1.09.52,2.3,1.18,3.22,2.18,1.81,1.95,3.91,3.58,6.07,5.13.5.36.96.79,1.39,1.23,1.87,1.89,4.37,3.14,5.82,5.39,1.35,2.1,3.43,3.64,4.41,5.99.14.34.41.55.74.73.27.14.65.35.71.59.38,1.58,1.76,2.63,2.15,4.23.22.91.84,1.79,1.45,2.54,1.18,1.45,1.8,3.08,1.84,4.91.02,1.12.4,2.17.5,3.27.02.27.07.59.22.8,1.79,2.44,1.66,5.38,2.16,8.16.29,1.59.87,3.12.88,4.78,0,.6.17,1.2-.17,1.73-.5.77-.53,1.63-.22,2.39.75,1.82.27,3.74-.09,5.38-.51,2.29-.62,4.77-1.89,6.89-.1.16-.18.39-.15.56.31,1.93-.79,3.49-1.36,5.19-.32.97-.19,2.08-.93,2.92-.93,1.05-1.41,2.37-2.09,3.57-.79,1.37-1.97,2.53-3.04,3.73-.71.79-1.51,1.5-2.01,2.46-.09.17-.19.38-.35.48-2.31,1.36-3.17,3.98-5,5.71-1.2,1.14-2.43,2.36-3.99,3.12-1.28.63-2.53,1.34-3.68,2.17-1.59,1.15-3.28,2.27-5.05,2.85-1.89.62-2.94,2.43-4.82,2.78-3.04.56-5.59,2.47-8.7,2.93-1.44.21-2.94.62-4.29,1.32-.64.33-1.25-.04-1.84-.13-.6-.1-1.27-.28-1.74.02-1.81,1.15-3.72.37-5.59.45-1.58.07-3.07-.88-4.58-.76-2.37.2-4.35-.98-6.53-1.32-1.55-.24-2.82-.87-4.13-1.57-.14-.08-.3-.18-.44-.17-2.1.21-3.85-.91-5.61-1.69-1.69-.74-3.72-.82-5.05-2.43-.4-.48-1.25-.65-1.93-.82-1.51-.38-2.61-1.59-4.18-1.9-1.22-.24-1.72-1.58-2.72-2.24-.9-.59-1.88-1.07-2.58-2-.38-.51-1.09-.78-1.86-.9-1.28-.2-2-1.38-2.91-2.19-.6-.53-1.09-1.17-1.82-1.56-1.46-.78-2.04-2.31-2.97-3.53-1.11-1.46-2-3.08-2.98-4.63-.88-1.39-1.9-2.73-2.84-4.1-.92-1.34-1.22-2.79-.98-4.35.22-1.38.04-2.82-.5-3.95-.78-1.63-.8-3.32-.88-4.96-.11-2.06-.05-4.18.49-6.23.1-.36.2-.67.44-.94.52-.58.73-1.19.65-2.04-.1-1.06.44-2.13,1-2.98,1.08-1.66,1.67-3.59,2.91-5.16.71-.89,1.61-1.7,2.07-2.71.55-1.2,1.42-2.14,2.22-3.09,1.32-1.58,2.64-3.2,4.6-4.17,1.33-.65,2.33-1.84,3.67-2.58,1.94-1.07,4.05-1.68,6.13-2.06,1.55-.28,3.32-.76,4.79-.45,1.92.4,3.87.44,5.74.87,1.83.42,3.76.82,5.43,1.57,3.27,1.45,6.84,2.07,9.95,4,2.08,1.29,3.67,3.07,5.55,4.54,1.33,1.05,2.82,1.96,3.59,3.51.76,1.54,2.29,2.31,3.31,3.58.9,1.12,1.88,2.08,1.72,3.72-.1,1.06.99,1.37,1.69,1.8,2.14,1.33,2.89,1.31,4.44-.66.82-1.04,1.23-2.52.73-3.92-.7-1.94-1.71-3.72-2.99-5.34-.92-1.16-1.97-2.2-2.82-3.45-.73-1.07-2.06-1.78-2.99-2.82-1.16-1.29-2.42-2.5-3.71-3.66-.91-.81-2.29-1.29-2.84-2.27-.58-1.03-1.39-1.48-2.28-1.84-1.77-.73-3.39-1.78-5.23-2.37-1.07-.34-1.55-1.46-1.98-2.41-.68-1.49-1.76-2.45-3.2-3.11-1.07-.49-1.86-1.43-2.45-2.33-.93-1.42-2.26-2.36-3.42-3.51-1.16-1.15-2.65-1.96-3.37-3.57-.21-.48-.88-.77-1.35-1.13-.37-.29-.9-.48-1.12-.85-.89-1.47-2.4-2.32-3.45-3.61-.34-.41-.65-.61-1.19-.63-.99-.04-1.57-.52-2-1.51-.62-1.44-1.19-2.92-2.32-4.14-.98-1.06-1.61-2.31-.64-3.96.79-1.35.23-3.06.42-4.6.47-3.84.54-7.71.79-11.57.16-2.37.3-4.75.25-7.12-.02-.73.32-1.28.35-1.96.08-2-.24-3.97-.39-5.95-.18-2.46-.35-4.93-.38-7.39,0-.75.45-1.53.97-2.15,1.97-2.38,4.05-4.66,6.38-6.69,1.92-1.67,3.8-3.42,6.19-4.55,1.13-.53,2.38-1.14,3.26-2.18.44-.52,1.21-.47,1.79-.75,1.69-.8,3.33-1.73,5.04-2.49,1.47-.65,2.98-1.24,4.47-1.83,1.45-.58,3.26-.31,4.71-1.15,2.02-1.17,4.35-.99,6.49-1.68.99-.32,2.28.09,3.39-.23,2.58-.75,5.19-.13,7.78-.25.61-.03,1.18.08,1.75.3,1.15.44,2.34.66,3.57.59,3-.18,5.66,1.13,8.42,1.94,1.63.48,3.31.77,4.87,1.5.58.27,1.13.57,1.62.99.24.21.46.51.74.59,2.06.64,3.74,2,5.65,2.88,1.58.74,2.95,1.64,3.98,3,.42.56,1.1.66,1.53,1.11,1.33,1.38,3,2.39,3.94,4.2.42.8,1.3,1.36,1.89,2.18,1.04,1.45,1.68,3.09,2.6,4.58.32.51.82.85,1.08,1.35,1.34,2.58,2.21,5.33,2.81,8.1Z"/>
      <path class="cls-3" d="M395.19,25.49c.02.12,0,.31.07.34,1.59.78,1.58,2.63,2.54,3.83.38.47.68,1.15.69,1.75.05,1.89.67,3.55,1.67,5.11.73,1.13.98,2.38.85,3.69-.07.71.16,1.33.4,1.96,1.01,2.64.56,5.41.64,8.13.04,1.42-.4,2.82.15,4.25.3.76-.32,1.54-.32,2.33,0,1.53.32,3.1.08,4.58-.33,2.01.06,4-.33,6.04-.4,2.08-.82,4.3-.38,6.49.14.67-.28,1.2-.45,1.79-.31,1.08-.35,2.18-.14,3.26.3,1.57-.48,3.02-.4,4.56.19,3.56-.36,7.06-.92,10.56-.29,1.8-.07,3.61-.03,5.42,0,.19.15.45.07.57-1.27,2-.37,4.19-.53,6.28-.06.74-.14,1.42-.5,2.04-.64,1.08-.86,2.25-.58,3.43.18.74-.44,1.07-.69,1.29-2.17,1.86-4.66,3.41-6.47,5.61-1.68,2.05-3.65,3.9-4.84,6.34-.56,1.15-1.29,2.22-2.05,3.28-1.26,1.76-1.99,3.83-2.88,5.8-.21.47-.34.97-.64,1.4-.42.6-.4,1.36-.64,1.98-.72,1.9-.8,3.78-.76,5.78.02,1.05-.44,2.28-.74,3.42-.32,1.2-.13,2.26.68,3.23.17.2.37.54.32.74-.46,1.6.41,3.02.57,4.53.03.31.19.58.09.93-.42,1.52.06,2.94.54,4.35.09.26.15.5.41.69.77.57,1.09,1.39,1.14,2.33.04.84.3,1.56,1.16,1.92.13.06.3.17.34.29.67,1.89,2.32,3.15,3.16,4.93.08.18.17.38.32.5,1.29,1,1.03,1.96.35,3.32-.87,1.74-1.88,3.39-2.74,5.13-.05.11-.1.23-.18.3-1.66,1.3-2.33,3.44-3.91,4.75-1.82,1.51-3.78,2.85-6.09,3.59-2.27.72-4.46,1.73-6.76,2.27-3.52.82-7.01.95-9.87-1.98-.66-.68-1.64-1.04-2.26-1.8-1.74-2.11-4.29-3.66-4.82-6.62-.18-1.01-.38-1.91-1.4-2.41-.19-.09-.47-.38-.44-.52.33-1.5-1.06-2.6-.91-4.07.08-.8-.22-1.56-.77-2.21-1-1.17-.84-2.68-.81-4,.03-1.6-.52-3.1-.42-4.7.16-2.42.03-4.87,0-7.29-.02-1.46.21-2.96-.14-4.47-.28-1.21-.1-2.61.19-3.85.46-1.97-.07-3.86-.08-5.78,0-1.24-.53-2.13-1.61-2.74-.24-.13-.35-.51-.49-.8-.78-1.59-2.26-1.78-3.55-.54-1.15,1.11-1.45,2.6-1.63,3.99-.28,2.18-1.15,4.14-1.69,6.21-1.21,4.59-3.33,8.8-5.2,13.1-.66,1.52-1.55,2.99-2.08,4.59-.49,1.47-.85,2.99-1.26,4.49-.3,1.11-.42,2.18-1.44,3.09-.77.68-1,2.02-1.38,3.09-.75,2.08-2.11,3.8-3.25,5.65-.39.63-.87,1.19-1.24,1.85-.89,1.55-2.14,2.72-3.71,3.7-2.82,1.76-6.08,2.11-9.08,3.27-.47.18-.84.06-1.3-.25-.68-.46-1.44-.58-2.38-.3-1.18.34-2.42.28-3.74-.05-1.51-.38-2.93-.89-4.38-1.41-.74-.27-1.28-.8-1.92-1.17-4.29-2.5-6.37-6.36-6.94-11.16-.17-1.44.33-2.82.38-4.25.07-2.06.32-4.13.65-6.16.54-3.38,1.01-6.75,2.1-10.04.68-2.07,1.26-4.2,1.9-6.29.62-2.05,1.47-4.04,2.44-5.99.65-1.32,1.24-2.81,1.2-4.41-.05-2.1,1.08-3.88,1.72-5.77.82-2.43,2.2-4.65,2.92-7.14.32-1.08.85-2.14,1.49-3.08.45-.66.46-1.42.7-2.09.89-2.48,2.16-4.83,2.77-7.38.59-2.46,1.9-4.56,3.04-6.72.86-1.64,1.78-3.27,2.61-4.93.55-1.1.96-2.23,1.91-3.13.53-.5.75-1.33.66-2.19-.07-.66.19-1.28.63-1.86,1.57-2.04,2.85-4.25,3.68-6.71.14-.41.47-.81.84-1.14.58-.54.92-1.25.96-2.06,0-.12,0-.25.05-.35.88-1.79,1.69-3.63,2.69-5.36.72-1.23,1.83-2.18,1.98-3.78.1-1.06,1.28-1.68,1.74-2.66.94-1.99,2.03-3.91,3.3-5.71,1.1-1.56,1.57-3.51,2.91-4.91.36-.37.19-.81.39-1.2.81-1.62,1.98-3.01,2.97-4.5.49-.73.96-1.45,1.16-2.27.34-1.37,1.1-2.41,2.08-3.39.57-.57.92-1.36,1.43-2.01,1.84-2.36,3.87-4.58,5.49-7.07,1.5-2.31,3.63-3.97,5.38-6.01,1.14-1.33,2.54-2.43,3.68-3.81,1.3-1.56,3.08-2.7,4.53-4.15,1.44-1.44,3.35-2.13,4.94-3.32.87-.65,2.05-.41,2.97-1.06,1.38-.97,2.97-1.41,4.67-1.45,1.76-.04,3.3-1.11,5.1-1.02.38.02.78-.03,1.17-.01,1.01.04,2.02.21,3.04-.2.67-.27,1.47-.27,2.2.13.54.29,1.13.28,1.74.24,1.58-.12,3,.26,4.04,1.56.07.09.16.2.26.24,1.97.8,3.37,2.48,5.24,3.45v-.02ZM352.52,106.07c.63,0,1.92.21,3.05-.31,1.61-.74,3.47-1.21,4.18-3.19.12-.34.53-.59.84-.83,1.18-.94,2.22-1.96,3.01-3.3.38-.64.27-1.39.77-1.95,2.21-2.45,2.28-5.78,3.47-8.66.32-.78.28-1.78.51-2.66.58-2.23-.33-4.29-.81-6.38-.13-.57-1.07-.95-1.25-1.53-.71-2.32-2.92-2.89-4.64-3.8-1.98-1.06-4.34-.61-6.55-.44-.19.01-.4.05-.57.15-1.69,1.02-3.67,1.48-5.03,3.15-.75.92-1.76,1.66-2.5,2.66-1.56,2.13-3.26,4.18-3.79,6.86-.76,3.89-1.62,7.77-1.05,11.78.33,2.34.86,4.58,2.87,6.13.78.6,1.45,1.46,2.32,1.79,1.44.54,3.01.69,5.16.54Z"/>
      <path class="cls-6" d="M111.12,42.83c.3-.41,0-1.03.34-1.45.9-1.08,1.01-2.5,1.36-3.73.49-1.71,1.16-3.33,1.72-5,.33-.97,1.31-1.48,1.47-2.54.36-2.37,2.05-4.13,2.99-6.25.85-1.91,2.39-3.33,3.61-4.98,1.62-2.19,3.68-3.96,5.68-5.75,1.07-.95,2.6-1.39,3.94-2.03.31-.15.77-.04,1.02-.23,1.82-1.39,3.98-1.27,6.03-1.21,2.22.07,4.47-.14,6.53,1.54,1.34,1.09,2.84,2.14,4.31,3.13,1.12.76,1.34,2.13,1.95,3.23,1.18,2.14,1.82,4.49,2.38,6.82.46,1.88.62,3.87.1,5.81-.17.63-.07,1.25-.1,1.87-.01.22.12.43-.03.68-.93,1.56-.66,3.37-1.08,5.03-.34,1.37-.74,2.79-1.42,4.01-1.53,2.74-2.2,5.85-3.77,8.57-.24.41-.4.84-.71,1.22-.59.71-1,1.53-1.15,2.45-.14.86-.39,1.64-.9,2.38-1.33,1.88-2.05,4.08-3.17,6.08-.98,1.75-2.01,3.46-3.05,5.17-1.05,1.71-1.97,3.63-2.59,5.62-.28.9-.78,1.71-1.39,2.42-.92,1.06-1.54,2.2-1.99,3.57-.72,2.15-1.85,4.17-2.85,6.23-.85,1.76-1.86,3.46-2.87,5.12-1.28,2.1-2.19,4.39-3.54,6.42-.44.66-.38,1.43-.75,2.09-.25.46-.49.56-.93.3-1.9-1.1-3.88-1.9-6.13-1.98-1.69-.06-3.42-.44-5.06-.33-1.32.09-2.73.54-4.06.94-1.85.55-3.84.79-5.44,2-.9.68-1.81,1.23-2.93,1.48-.76.17-1.2.88-1.69,1.44-.63.71-1.18,1.3-2.33,1.26-.9-.03-1.69.72-2.26,1.5-.5.67-1.04,1.25-1.95,1.36-.73.09-1.26.55-1.83,1-1.46,1.14-3.34,1.29-5.03,1.9-1.32.47-2.7.95-4,1.26-2.42.58-4.52,2.01-7,2.31-.37.05-.81.45-1.08.04-.26-.4-.16-.94.06-1.38,1.43-2.82,1.57-5.89,1.77-8.94.01-.18-.06-.41-.17-.55-.73-.99-.84-2.21-1.14-3.34-.52-1.99-1.7-3.51-3.15-4.89-.46-.44-1.02-.87-.84-1.72.08-.37-.11-.94-.39-1.22-.89-.9-1.26-2.11-1.75-3.18-1.1-2.4-2.43-4.67-3.54-7.05-.11-.23-.03-.55-.06-.83-.09-.87-.16-1.75-1.03-2.28-.16-.1-.34-.27-.39-.44-.38-1.36-1.2-2.53-1.7-3.82-.31-.78-.6-1.53-1.13-2.16-1.13-1.35-1.26-3.14-2.08-4.64-1.11-2.03-2.09-4.12-3.12-6.19-.09-.18-.25-.34-.27-.53-.22-2.2-1.87-3.65-2.85-5.45-.47-.87-.82-1.86-1-2.73-.57-2.7-2.09-4.96-3.12-7.43-1.04-2.5-1.48-5.17-2.56-7.64-.2-.45-.15-.87-.08-1.26.33-1.78-.04-3.51-.39-5.22-.51-2.54-.17-5.05.12-7.56.5-4.27,3.28-7.14,6.33-9.77.93-.8,2.21-.99,3.35-1.37.74-.25,1.26-.97,2.2-.82,1.92.31,3.93-.76,5.84.36.33.19.87-.01,1.28.1,1.03.27,2,.64,2.86,1.36,1.79,1.51,3.81,2.76,5.33,4.58,2.3,2.74,4.49,5.56,5.93,8.88.47,1.08,1.29,1.96,1.82,3.06,1.17,2.47,1.66,5.16,2.82,7.63.28.59.75,1.02.97,1.7.89,2.83,2,5.58,2.51,8.52.06.38.27.75.46,1.09.65,1.12,1.33,2.18.9,3.62-.14.48.22,1.14.44,1.68.54,1.35,1.2,2.58,1.26,4.16.04,1.14.69,2.38,1.11,3.55,1.05,2.9,2.18,5.81,1.98,8.92-.14,2.31.8,4.26,1.3,6.37.32,1.34.44,2.72.94,4.03.22.59.52,1.09,1.04,1.4,1.02.6,2.12,1.01,3.16,1.58.82.46,2.37-.37,2.51-1.4.31-2.17,1.67-4.01,1.97-6.12.45-3.12,1.92-5.86,2.84-8.79.37-1.19.63-2.44.78-3.67.1-.83.6-1.46.9-2.15,1.39-3.22,1.72-6.75,3.03-10,.63-1.56.93-3.27,1.31-4.92.24-1.04.98-1.83,1.25-2.84.09-.33.43-.62.07-1.08Z"/>
      <path class="cls-6" d="M222.42,15.35c2.89.16,5.5.39,7.71,2.1,1.82,1.41,3.75,2.7,5.24,4.5,2.28,2.76,4.49,5.56,5.92,8.89.45,1.04,1.26,1.88,1.76,2.95,1.21,2.54,1.69,5.33,2.93,7.83.32.65.83,1.2,1.05,1.92.07.23.26.42.29.65.12,1.01.52,1.9.91,2.85.59,1.44.8,3.05,1.14,4.59.11.52.39.94.62,1.4.51,1.03,1.21,1.98.78,3.31-.18.56.26,1.26.49,1.89.47,1.28,1.17,2.42,1.17,3.95,0,1.17.68,2.47,1.15,3.66,1.23,3.08,2.22,6.25,2.02,9.51-.13,2.18.99,3.83,1.27,5.78.2,1.37.43,2.73.93,4.03.19.5.42.95.86,1.24,1.02.68,2.17,1.1,3.23,1.71.87.5,2.44-.34,2.61-1.41.34-2.16,1.65-4.01,1.98-6.11.47-3.07,1.85-5.79,2.8-8.68.4-1.22.65-2.51.81-3.79.1-.83.64-1.41.89-2.16,1.57-4.61,2.76-9.33,4.16-13.99.33-1.11.66-2.19,1.23-3.2.35-.62.24-1.34.4-1.97.38-1.49.97-2.92,1.48-4.38.38-1.07.58-2.19,1.02-3.26.66-1.64,1.67-3.15,2.21-4.78.77-2.34,2.19-4.26,3.24-6.41,1.21-2.49,3.08-4.51,4.92-6.48,1.96-2.09,4.28-3.82,7.04-4.89,1.27-.49,2.57-1.05,3.68-1.9.53-.41,1.17-.18,1.73-.32,2.17-.57,4.37.19,6.55-.15.49-.08,1.06.27,1.57.47,1.98.77,4.01,1.47,5.58,3.01.51.5,1.3.57,1.78,1.15,1.24,1.49,2.25,3.08,2.86,4.95.57,1.73,1.44,3.34,1.48,5.23.07,3.4-.51,6.66-1.81,9.79-.21.51-.41,1.04-.49,1.57-.19,1.33-.56,2.55-1.19,3.77-.84,1.64-1.5,3.39-1.99,5.16-.41,1.47-1.39,2.6-1.94,3.98-.44,1.08-.83,2.29-1.84,3.1-.23.18-.37.53-.45.83-1.33,4.53-4.09,8.38-6,12.62-.15.32-.36.62-.59.9-1.69,2.09-2.5,4.64-3.59,7.03-.39.87-.84,1.69-1.44,2.4-.83.98-1.36,2.04-1.82,3.26-.85,2.28-1.87,4.51-3.05,6.66-.86,1.58-2.03,3-2.59,4.74-.23.71-.82,1.16-1.22,1.75-.78,1.14-.61,2.6-1.47,3.71-.78,1-1.35,2.14-1.71,3.38-.19.66-.67.17-.96.04-.93-.4-1.82-.89-2.77-1.28-1.73-.7-3.5-.61-5.27-.76-.9-.08-1.81-.16-2.71-.25-.11-.01-.25-.13-.33-.1-3.04,1.15-6.45,1.15-9.31,2.89-1.04.64-1.97,1.41-3.24,1.67-.82.17-1.28,1.01-1.84,1.62-.55.61-1.07,1.07-2.08,1.03-.92-.04-1.72.67-2.29,1.46-.52.73-1.11,1.29-2.05,1.43-.73.11-1.27.56-1.83,1.02-1.42,1.16-3.29,1.21-4.93,1.86-1.32.52-2.76.95-4.11,1.28-2.38.58-4.45,1.98-6.88,2.28-.4.05-.86.53-1.18.04-.23-.35-.15-.88.05-1.27,1.43-2.81,1.59-5.88,1.8-8.94.01-.19-.02-.42-.12-.57-.6-.91-.85-1.94-1.07-2.98-.46-2.22-1.77-3.92-3.37-5.44-.45-.43-.87-.86-.75-1.64.07-.42-.14-1.03-.45-1.32-.92-.89-1.32-2.11-1.76-3.17-.99-2.38-2.43-4.5-3.44-6.84-.12-.28-.04-.63-.08-.95-.11-.87-.18-1.75-1.07-2.26-.16-.09-.35-.28-.38-.44-.23-1.54-1.44-2.66-1.78-4.16-.05-.23-.09-.51-.24-.67-1.94-2.1-2.4-4.95-3.71-7.38-1.2-2.21-2.47-4.43-3.12-6.95-.31-1.21-1.52-2.17-2.07-3.36-.82-1.78-2.09-3.57-.66-5.68.55-.81,1.49-1.03,2.08-1.84,1.1-1.51,2.47-2.82,2.93-4.72.25-1,1.19-1.65,1.54-2.56,1.44-3.87,3.07-7.7,3.28-11.92.02-.5.21-.92.43-1.35.2-.39.31-.82.52-1.21.35-.64-.82-.97-.47-1.17.71-.39.44-.7.25-1.18-.37-.9-.12-1.88-.27-2.82-.37-2.25-.45-4.56-1.48-6.66-.45-.91-.4-1.97-1.14-3.13Z"/>
      <path class="cls-6" d="M107.03,136.21c.06-.92.17-1.87-1.11-2.13-1.05-.21-2.19.18-2.72,1.31-.44.95-1.33,1.58-1.89,2.48-1.03,1.65-2.07,3.35-3.52,4.68-1.29,1.18-2.26,2.67-3.75,3.68-.58.39-.9,1.31-1.52,1.73-2.13,1.45-4.27,2.89-6.96,3.22-.91.11-1.77.75-2.68.84-2.48.26-4.98.67-7.45-.05-.35-.1-.7-.05-.89.09-.27.21-.48.22-.75.13-2.56-.87-5.43-.99-7.41-3.24-.66-.74-1.66-1.23-2.53-1.59-1.58-.65-2.15-1.92-2.69-3.27-.36-.91-1.04-1.6-1.47-2.42-1.03-1.94-1.44-4-1.48-6.25-.03-1.66-.01-3.26.28-4.89.36-1.96,1-3.74,2.46-5.2.74-.74.89-1.98,2.07-2.45.4-.16.9-.52,1.17-.37.38.22-.23.55-.25.87-.12,1.79-1.03,3.36-1.36,5.08-.2,1.04-.19,2.24,0,3.11.48,2.09.73,4.25,1.67,6.28,1.03,2.21,2.43,4.1,3.95,5.92.75.9,1.88,1.34,2.97,1.7,2.88.96,5.79,1.08,8.72.2,2.15-.64,4.05-1.77,5.87-3.01.57-.39,1.25-.64,1.72-1.17,1.45-1.66,3.06-3.21,3.81-5.35.72-2.04,2.14-3.84,2.27-6.07.12-1.98.64-3.88.43-5.95-.11-1.04-.26-2.21-.6-3.05-.68-1.63-1.24-3.38-2.4-4.79-.57-.69-.82-1.25.18-1.87.85-.52,1.59-1.18,2.67-1.17.37,0,.71-.24.91-.52.94-1.3,2.55-1.73,3.63-2.88.39-.42,1.23-.24,1.77-.74,1.31-1.2,2.91-1.95,4.54-2.63.75-.31.97-1.13,1.68-1.45,1.66-.76,3.34-1.41,5.23-1.03.37.08.7-.11,1.04-.16,2.22-.33,4.35-.12,6.22,1.23.63.45,1.38.56,2.06.78,1.19.4,2.15.97,3,1.89,1.03,1.11,2.15,2.13,3.44,2.98,1.95,1.28,2.82,3.43,3.92,5.36.25.44.39.98.74,1.32.95.95.62,1.91.15,2.9-.6,1.25-1.05,2.57-1.55,3.85-.93,2.4-1.61,4.9-2.34,7.37-.19.66-.42,1.29-.75,1.88-1.09,1.93-1.65,4.08-2.35,6.14-1.04,3.08-1.99,6.22-2.54,9.45-.44,2.6-1.26,5.19-1.3,7.79-.05,2.87-1.88,5.45-1.1,8.39.12.44-.28.76-.64,1.13-.96.98-2.67,1.46-2.48,3.33.04.4-.38.57-.71.73-2.06.96-3.5,2.78-5.43,3.93-.35.21-.47.8-.71,1.21-.93,1.56-2.37,2.53-4.02,3.11-.56.2-.79.6-1.19.89-1,.71-1.82,1.68-3.09,2.02-.41.11-.83.52-1.07.91-.62,1-1.51,1.61-2.54,2.11-1.95.95-3.78,2.13-5.57,3.35-.64.44-1.31.78-2.08.75-.54-.02-1.1,0-1.46.36-1.1,1.09-2.64,1.23-3.92,1.91-1.17.62-2.5.65-3.7.71-1.4.07-2.6.47-3.8,1.02-.93.42-1.88.5-2.89.51-1.69.02-3.39.29-5.02.55-1.62.26-2.95-.53-4.43-.43-1.77.13-3.52-.23-5.27-.05-.39.04-.7.01-1-.18-1.43-.93-2.92-1.27-4.66-.95-.86.16-1.81-.22-2.71-.56-1.23-.47-2.55-.86-3.76-1.34-1.76-.71-3.86-.76-5.21-2.36-.45-.54-1.24-.59-1.67-.61-1.66-.07-2.67-1.25-3.97-1.93-.44-.23-.82-.57-1.33-.7-.82-.21-1.49-.56-2.01-1.33-.74-1.09-2-1.65-3.02-2.46-1.84-1.46-3.3-3.19-4.42-5.25-.49-.9-1.11-1.72-1.65-2.59-.77-1.24-.52-2.75-1.1-4.07-.59-1.35-1.04-2.76-1.54-4.15-.41-1.13-.33-2.33-.54-3.49-.07-.37.49-.62.77-.61.76.04,1.35-.41,2.05-.52,2.28-.36,3.91-1.72,5.2-3.54.23-.32.55-.58.79-.89.52-.69.99-.61,1.53,0,2.27,2.56,5.15,4.06,8.47,4.78.19.04.46,0,.58.11,1.53,1.45,3.36.94,5.11.74,1.5-.18,2.93-.8,4.53-.32.8.24,1.54-.48,2.26-.84,2.63-1.31,5.1-2.81,6.51-5.58.51-.99,1.71-1.21,2.63-.31.88.86,1.86,1.55,2.96,1.9,1.16.37,1.65,1.5,2.81,1.88,3.54,1.17,7.06,2.07,10.79,1.02.34-.09.7-.15,1.05-.12.82.06,1.57.22,2.44-.08.98-.33,2.02-.79,3.18-.43.89.28,1.44-.66,2.2-.95,1.85-.7,3.82-1.03,5.56-2.17,2.91-1.92,5.33-4.25,7.29-7.11.99-1.44,2.27-2.64,3.28-4.08,1.46-2.1,2.34-4.46,3.39-6.75.15-.33.02-.78.02-1.17Z"/>
      <path class="cls-6" d="M272.57,140.61c.02-.89.25-1.88-1.03-2.19-1.23-.29-2.23.18-2.81,1.32-.48.93-1.33,1.57-1.9,2.48-1.05,1.68-2.09,3.43-3.58,4.77-1.25,1.12-2.08,2.68-3.63,3.46-.38.19-.31.6-.57.86-2.26,2.17-4.83,3.68-7.97,4.19-.92.15-1.77.77-2.68.85-2.48.24-4.98.69-7.46-.06-.34-.1-.69-.05-.88.11-.28.23-.5.19-.76.11-2.57-.83-5.41-1.01-7.41-3.25-.66-.74-1.66-1.24-2.54-1.58-1.39-.53-1.95-1.63-2.47-2.73-.46-.97-.98-1.87-1.54-2.79-1.18-1.92-1.48-4.06-1.62-6.33-.13-2.01,0-3.93.49-5.82.39-1.53.8-3.11,2.16-4.19.3-.24.52-.63.68-1.06.37-1.03,1.26-1.55,2.26-1.89.24-.08.71-.17.47.27-.51.93-.61,2-.9,2.95-.39,1.28-.71,2.65-.79,4.09-.1,1.77.65,3.3.68,4.98.01.86.48,1.59.77,2.37.97,2.62,2.55,4.87,4.49,6.81.86.86,2.04,1.66,3.49,1.48.11-.01.24.04.34.1,2.47,1.41,4.99.56,7.46.07,2.24-.45,4.13-1.75,5.99-3,.57-.38,1.26-.63,1.72-1.17,1.44-1.66,3.06-3.21,3.8-5.35.7-2.01,2.11-3.77,2.25-5.96.12-2.01.66-3.96.45-6.06-.11-1.05-.27-2.21-.61-3.04-.67-1.63-1.23-3.39-2.4-4.79-.58-.7-.76-1.23.19-1.88.84-.57,1.65-1.05,2.68-1.17.32-.04.72-.26.91-.52.95-1.3,2.57-1.71,3.64-2.87.38-.42,1.22-.24,1.77-.74,1.31-1.2,2.91-1.95,4.54-2.62.74-.31.97-1.13,1.68-1.45,1.67-.75,3.34-1.42,5.23-1.02.37.08.7-.11,1.04-.16,2.22-.33,4.35-.12,6.22,1.23.63.45,1.39.61,2.06.77,1.39.33,2.48,1.11,3.26,2.11,1.24,1.6,3.06,2.44,4.43,3.86,1.2,1.25,1.74,2.87,2.66,4.27.09.14.07.41,0,.58-.45,1.32-.78,2.7-1.42,3.92-.71,1.35-1.26,2.73-1.77,4.15-.38,1.06-1.27,1.86-1.56,3-.61,2.33-1.32,4.64-1.99,6.96-.48,1.67-1.27,3.23-1.82,4.89-.92,2.78-2.38,5.41-3.03,8.24-.65,2.83-1.37,5.65-2,8.49-.4,1.79-.79,3.56-.97,5.39-.22,2.24-.64,4.48-.26,6.72.23,1.33-.12,2.13-1.32,2.74-1.57.8-2.66,2.3-4.2,3.18-.32.18-.4.75-.63,1.12-.96,1.58-2.41,2.58-4.11,3.16-.56.19-.78.63-1.18.92-.99.73-1.85,1.63-3.1,2-.41.12-.79.56-1.05.94-.61.89-1.38,1.49-2.36,1.96-2.02.98-3.9,2.23-5.77,3.48-.65.44-1.31.75-2.09.7-.63-.04-1.25.11-1.67.49-.86.79-1.96.99-2.94,1.47-1.45.71-2.99.91-4.47,1.04-1.29.11-2.44.38-3.57.94-.97.48-2.03.56-3.1.59-1.65.06-3.31.28-4.93.53-1.63.25-3.02-.55-4.52-.44-1.73.13-3.45-.25-5.16-.05-.49.06-.84-.02-1.21-.27-1.36-.92-2.81-1.16-4.45-.83-.73.15-1.61-.04-2.33-.33-1.52-.62-3.17-1-4.6-1.67-1.64-.77-3.78-.66-4.95-2.41-.1-.15-.42-.2-.65-.23-1.99-.26-3.49-1.54-5.21-2.36-1.68-.79-2.89-2.05-4.34-3.07-2.49-1.75-4.59-3.77-6.08-6.44-.5-.89-1.09-1.73-1.65-2.59-.81-1.23-.51-2.76-1.1-4.07-.63-1.37-1.14-2.81-1.56-4.26-.31-1.09-.47-2.24-.54-3.37-.03-.49.57-.56,1.04-.71,1.6-.51,3.33-.64,4.75-1.74.95-.73,1.69-1.61,2.4-2.53,1.13-1.46,1.21-1.42,2.54-.15,2.14,2.04,4.64,3.5,7.54,4.15.79.18,1.53.41,2.18.82.73.47,1.45.46,2.21.34,1.36-.2,2.74-.29,4.08-.7.51-.15,1.14-.12,1.75.1,1.33.48,2.33-.54,3.37-1.05,2.48-1.24,4.72-2.82,6.03-5.42.44-.87,1.73-1.02,2.58-.16.87.88,1.87,1.56,2.96,1.89,1.17.37,1.63,1.52,2.81,1.89,3.51,1.09,6.99,2.04,10.68,1,.46-.13.91-.15,1.4-.09.68.08,1.35.11,2.09-.1,1-.29,2.02-.82,3.18-.45.92.29,1.45-.65,2.21-.93,1.89-.71,3.89-1.06,5.67-2.21,2.92-1.91,5.31-4.27,7.28-7.12.99-1.43,2.27-2.63,3.28-4.08,1.46-2.1,2.34-4.46,3.37-6.76.13-.29.02-.7.02-1.06Z"/>
      <path class="cls-1" d="M176.25,69.06c1.81-.2,3.5.82,5.34,1.15.47.08.94.12,1.41.18.38.05.85.15.92.44.27,1.12,1.19,1.05,2,1.27.84.23,1.49.69,2.08,1.45,1.05,1.37,1.87,2.87,2.85,4.27.81,1.16,1.15,2.56,1.89,3.75.12.19.02.55-.03.82-.23,1.24-.41,2.4.14,3.69.4.94.35,2.14.26,3.2-.06.65.25,1.19.16,1.82-.43,2.78-1.11,5.49-2.05,8.14-.14.41-.29.78-.89.76-.44-.02-.79.34-1.13.62-.77.65-1.58,1.06-2.64,1.21-.62.09-1.46.5-1.83.98-.71.91-1.72,1.25-2.61,1.8-1.81,1.12-3.1,2.82-4.62,4.25-1.23,1.16-2.54,2.41-3.13,4.08-.93,2.62-2.97,4.63-3.91,7.24-.24.66-.1,1.52-1.1,1.86-.16.06.02,1.39-.39,2.12-1.6,2.83-2.2,5.92-2.53,9.14-.19,1.89-.78,3.77-.76,5.7.04,3.05.06,6.06,1.11,9.07.79,2.26,1.94,4.37,2.59,6.67.34,1.22.74,2.45-.59,3.49-.58.46-.58,1.39-.67,2.12-.23,1.86-.93,3.54-1.65,5.23-.6,1.4-.96,2.89-1.42,4.33-.57,1.8-1.28,3.64-2.46,5.19-.57.74-.86,1.58-1.2,2.42-.6,1.49-1.12,3.04-1.91,4.43-1.3,2.25-2.87,4.37-4.71,6.16-1.95,1.91-4.24,3.81-7.08,3.89-2.59.06-5.16.71-7.86-.1-1.78-.53-3.41-.99-4.97-2.09-1.51-1.07-3.18-2-4.39-3.35-.97-1.09-2.37-2-2.61-3.66-.19-1.29-1.07-2.29-1.53-3.49-.84-2.15-.71-4.26-.48-6.4.27-2.49.19-4.99.39-7.48.09-1.11.45-2.16.61-3.26.45-3.09.32-6.29,1.37-9.25.92-2.59,1.18-5.31,2-7.9.42-1.33.91-2.63,1.37-3.94.79-2.22,1.53-4.47,2.41-6.66.72-1.77.83-3.74,1.66-5.43,1.24-2.51,1.59-5.24,2.36-7.86.02-.08,0-.17.04-.23,1.45-2.58,1.4-5.7,2.93-8.23,1.11-1.83,1.78-3.85,2.85-5.7,1.36-2.36,2.35-4.89,3.01-7.57.33-1.32.7-2.73,1.63-3.82.56-.65.25-1.51.71-2.22,1.48-2.27,2.23-4.94,3.86-7.14.63-.85.5-2.03,1.31-2.89,1.72-1.83,2.67-4.26,4.56-5.96.63-.57,1.17-1.14,1.58-1.9.53-.98,1.74-1.16,2.59-1.79,2.11-1.56,4.44-2.8,6.96-3.62,1.12-.36,2.28-.16,3.41-.42.89-.2,1.68-.75,2.77-.6Z"/>
      <path class="cls-1" d="M218.17,22.98c-.33,2.38.14,4.39.31,6.41.06.69-.08,1.35-.14,1.99-.25,2.72-.43,5.51-1.88,7.93-1.14,1.9-1.78,4.01-2.8,5.97-.52.99-1.17,1.8-2.04,2.39-.94.64-1.6,1.45-2.13,2.41-.51.94-1.09,1.73-2.01,2.4-.76.56-1.39,1.31-2.35,1.55-1.04.26-1.85.94-2.7,1.49-.84.54-1.68.18-2.5.37-3.17.73-6.4.96-9.64,1.05-3.23.1-6.24-.83-9.19-2-.87-.34-1.22-1.41-2.13-1.68-.78-.23-1.46-.6-1.9-1.24-1.16-1.68-3-2.73-4.16-4.39-1.28-1.84-2.08-3.93-3-5.95-.28-.61-.53-1.2-.69-1.86-1-4.24-.65-8.35.89-12.44.53-1.42.69-3,1.35-4.41,1.01-2.16,1.84-4.43,3.1-6.43,1.44-2.29,3.38-4.22,5.87-5.46.64-.32.98-.92,1.53-1.28,1.39-.91,2.83-1.61,4.5-2.05,1.93-.51,3.96-.67,5.81-1.6.75-.37,1.78.27,2.72.24.53-.02,1.06.07,1.61,0,.95-.13,1.84.07,2.78.34,1.38.39,2.85.55,4.28.74,1.66.22,2.97,1.3,4.57,1.59.18.03.34.33.47.53.86,1.34,2.02,2.25,3.48,2.94,1.01.47,1.66,1.56,2.35,2.47,1.6,2.12,2.3,4.71,3.52,7.04.19.36.11.85.12.96Z"/>
      <path class="cls-6" d="M229.78,119.96c-1.35.18-2.84.69-4.16,1.82-.94.8-2.28,1.12-3,2.22-1.01,1.55-2.29,2.87-3.07,4.66-1.12,2.58-1.39,5.33-2.25,7.91-.87,2.59.42,5.01-.17,7.48-.11.48.31.8.57,1.11.82.98.54,2.29,1.12,3.38.61,1.16,1.54,2.11,2.04,3.33.24.59.39,1.03-.16,1.58-.75.76-.62,1.97-1.41,2.8-1.5,1.57-3.06,2.85-5.4,2.45-.49-.08-1.07.15-1.24.27-1.23.91-2.44.39-3.67.16-.39-.08-.78-.25-1.17-.24-2.68.09-4.53-1.36-6.15-3.25-.08-.09-.13-.22-.22-.27-1.57-.96-2.35-2.44-2.89-4.13-.44-1.35-1.57-2.49-1.05-4.13.12-.36-.22-.92-.45-1.32-.64-1.14-.33-2.36-.25-3.51.22-3.24.63-6.46,1.09-9.68.22-1.53.52-2.95,1.38-4.23.08-.12.16-.29.14-.43-.23-1.48.51-2.65,1.17-3.86.47-.87.77-1.81.99-2.78.38-1.69,1.15-3.26,1.95-4.77,1.67-3.15,3.43-6.26,5.28-9.31.78-1.3,1.64-2.62,3.15-3.29.33-.15.6-.52.87-.86.9-1.13,1.9-2.09,3.63-1.68.7.16,1.64-.02,2.28-.38,1.08-.59,2.24-.38,3.35-.59.94-.18,1.92-.08,2.82.39.85.44,1.77.73,2.69,1.02.83.26,1.63.95,2.22,1.63,1.42,1.67,2.53,3.46,2.82,5.78.34,2.66-.49,5.18-.52,7.78,0,.43-.18.86-.24,1.29-.22,1.61-.21,1.61-2.09,1.66Z"/>
      <path class="cls-6" d="M64.1,115.65c-1.14.18-2.74.53-3.95,1.81-.3.32-.71.31-1.04.54-2.28,1.57-3.67,3.79-5.01,6.18-1.17,2.09-1.48,4.35-2.02,6.54-.5,2.03-1.37,4.17-.39,6.36.11.24.09.56.04.83-.28,1.37.2,2.49.75,3.75.57,1.3.76,2.79,1.63,4.01.44.63.95,1.21,1.24,1.95.22.55.37.96-.15,1.48-.78.78-.63,2.06-1.48,2.9-1.5,1.47-3.01,2.83-5.31,2.42-.55-.1-1.14.16-1.35.3-1,.66-1.96.48-2.98.27-1.05-.21-2.11-.46-3.18-.54-2.17-.16-3.37-1.73-4.75-3.06-.08-.08-.12-.23-.21-.28-1.49-.95-2.35-2.37-2.88-4-.46-1.42-1.66-2.64-1.1-4.36.12-.36-.24-.9-.46-1.32-.61-1.19-.28-2.43-.2-3.63.21-3.2.63-6.38,1.08-9.56.21-1.46.52-2.79,1.27-4.03.12-.21.3-.36.26-.63-.19-1.38.39-2.52,1.09-3.64.31-.49.56-1.06.7-1.62.62-2.59,1.61-5.02,2.99-7.29,1.63-2.68,2.81-5.61,4.62-8.17.85-1.21,1.62-2.51,3.08-3.21.61-.29,1-1.03,1.5-1.56.62-.65,1.34-1.26,2.28-1.06,1.07.22,2.11,0,3-.33,1.11-.43,2.24-.38,3.35-.57.93-.16,1.91-.14,2.83.36.84.45,1.76.73,2.68,1.03.87.28,1.71.97,2.31,1.7,1.39,1.68,2.5,3.47,2.79,5.79.33,2.67-.52,5.18-.54,7.78,0,.43-.18.86-.23,1.29-.2,1.56-.19,1.57-2.22,1.61Z"/>
      <path class="cls-6" d="M182.15,157.67c-1.7-.27-3.24-.71-4.23-2.43-.5-.87-1.48-1.48-2.29-2.15-.6-.5-.84-1.19-1.21-1.83-.98-1.68-.76-3.68-1.69-5.35-.21-.38-.13-.93-.2-1.4-.23-1.39-.07-2.83-.79-4.15-.57-1.04.29-1.94.51-2.91.45-1.96.86-3.96.93-5.95.05-1.29.85-2.21,1.05-3.38.33-1.88,1.22-3.58,1.82-5.38.11-.33.24-.73.49-.92,1.55-1.11,1.58-3.01,2.43-4.46.87-1.48,1.91-2.91,3.12-4.12,1.53-1.54,3.2-2.99,5.01-4.18.91-.6,1.94-1.05,2.82-1.74.83-.65,1.78-1.04,2.93-.73,1.01.28,1.88-.51,2.96-.47,1.73.07,3.29.83,4.98.94.35.02.45.29.36.71-.36,1.66-1.07,3.13-2.05,4.51-1.06,1.5-1.71,3.19-2.08,4.99-.12.58-.28,1.17-.55,1.69-1.3,2.5-1.91,5.24-2.8,7.88-.32.95-.84,1.78-1.03,2.82-.53,2.88-.89,5.78-1.37,8.67-.15.93-.03,1.91-.15,2.85-.44,3.36.49,6.53,1.32,9.71.13.49-.17,1.07.1,1.39,1.5,1.72.12,2.39-.86,3.65-1.11,1.43-2.62,1.92-3.94,2.82-.46.31-1.13.4-1.66-.1-.47-.45-1.19-.52-1.61-1.08-.18-.24-.55-.42-.83-.18-.45.39-.95.28-1.48.3Z"/>
      <path class="cls-6" d="M7.86,144.49c.28-1.03-.17-1.9-.61-2.78-.12-.24-.17-.53-.21-.8-.25-1.62,0-3.32-.83-4.87-.57-1.04.28-1.94.5-2.91.45-1.96.86-3.96.93-5.96.05-1.29.84-2.21,1.05-3.38.33-1.88,1.23-3.58,1.82-5.38.11-.33.24-.74.49-.92,1.56-1.11,1.58-3.01,2.43-4.47.84-1.45,1.86-2.85,3.05-4.03,1.56-1.57,3.27-3.03,5.09-4.28.86-.59,1.86-1,2.73-1.68.75-.59,1.65-1.07,2.83-.78,1.13.28,2.21-.6,3.43-.49,1.62.15,3.13.81,4.75.98.29.03.4.27.32.63-.39,1.64-.98,3.19-2.05,4.51-.89,1.1-1.43,2.42-1.76,3.73-.85,3.34-2.48,6.39-3.38,9.71-.49,1.8-1.49,3.46-1.64,5.34-.31,3.78-1.2,7.47-1.27,11.31-.05,3.01.94,5.7,1.32,8.55.14,1.07.48,2.04.92,2.99.23.48.14.62-.3.89-.86.55-1.69,1.19-2.18,2.14-.19.38-.5.57-.87.76-.73.36-1.53.52-2.2,1.08-.39.33-1.08.39-1.65-.07-1.06-.85-2.14-1.33-3.66-1.12-1.92.27-3.5-.53-4.55-2.39-.47-.84-1.45-1.41-2.24-2.05-.61-.5-1.08-1.05-1.18-1.85-.08-.65-.44-1.17-.79-1.68-.16-.24-.32-.45-.28-.75Z"/>
      <path class="cls-6" d="M86.74,126.21c.38,2.35-.67,4.49-1.03,6.72-.13.79-.82,1.5-1.3,2.22-.58.85-1.36,1.55-1.61,2.62-.07.31-.35.72-.64.82-1.24.47-2.26,1.37-3.5,1.79-.83.28-1.76.59-2.64.08-.43-.25-.75.09-1.13.13-1.65.19-4.57-1.86-5.12-3.47-.81-2.38-1.59-4.76-1.92-7.27-.04-.27-.16-.56-.04-.81,1.06-2.27,1-4.86,2.07-7.13.24-.51.52-.96.96-1.09,2.64-.74,5.15-1.9,7.87-2.38,1.06-.19,2.09-.61,3.11-.97.32-.11.61-.25.84.08,1.04,1.44,2.52,2.65,2.78,4.53.15,1.1,1.23,1.71,1.24,2.87,0,.4-.07.86.05,1.26Z"/>
      <path class="cls-6" d="M252.36,130.55c.27,2.35-.76,4.49-1.12,6.72-.13.79-.82,1.5-1.31,2.21-.58.84-1.35,1.56-1.6,2.62-.07.29-.3.67-.54.75-1.47.5-2.6,1.76-4.17,1.97-2.66.36-5.25.2-7.32-1.79-.91-.87-1.09-2.17-1.55-3.28-.78-1.86-1-3.88-1.44-5.83-.14-.62.28-1.06.44-1.57.63-2.03.79-4.18,1.67-6.15.23-.52.53-.96.98-1.08,2.68-.74,5.22-1.95,7.99-2.39.94-.15,1.88-.5,2.76-.9.73-.33.98.07,1.46.49,1.88,1.63,2.12,4.14,3.39,6.1.36.55.26,1.41.37,2.12Z"/>
      <path class="cls-6" d="M85.6,109.46s.07.07.06.1c0,.03-.06.05-.09.08-.02-.03-.07-.07-.06-.1,0-.03.06-.05.09-.08Z"/>
      <path class="cls-6" d="M251.18,113.84s-.02.05-.03.08c-.03-.02-.07-.05-.1-.07.02-.02.04-.05.07-.07.02.02.05.04.07.06Z"/>
      <path class="cls-3" d="M395.2,25.51s.06-.05.09-.08c-.03.02-.07.04-.1.06,0,0,.01.02.01.02Z"/>
      <path class="cls-4" d="M387.15,185.93c-.02-.07-.04-.13-.06-.2.09.03.18.05.27.08-.07.04-.14.08-.21.12Z"/>
      <path class="cls-4" d="M352.52,106.07c-2.15.16-3.73,0-5.16-.54-.87-.33-1.54-1.19-2.32-1.79-2.02-1.55-2.54-3.79-2.87-6.13-.57-4.01.29-7.89,1.05-11.78.53-2.69,2.23-4.73,3.79-6.86.73-1,1.75-1.74,2.5-2.66,1.36-1.67,3.34-2.13,5.03-3.15.16-.1.37-.13.57-.15,2.21-.17,4.57-.61,6.55.44,1.72.92,3.92,1.48,4.64,3.8.18.58,1.11.96,1.25,1.53.48,2.09,1.4,4.15.81,6.38-.23.88-.19,1.88-.51,2.66-1.19,2.88-1.25,6.21-3.47,8.66-.5.56-.39,1.31-.77,1.95-.79,1.34-1.82,2.36-3.01,3.3-.31.25-.72.5-.84.83-.71,1.98-2.57,2.45-4.18,3.19-1.13.52-2.42.31-3.05.31ZM347.61,95.49c-.06,1.12.07,1.92.59,2.77.96,1.56,1.77,2.47,3.87,2.11,2.01-.34,3.55-1.45,4.86-2.9.67-.74,1.42-1.54,1.72-2.45.39-1.18.88-2.2,1.73-3.11.36-.39.85-.86.49-1.62-.05-.11-.37-.8.03-1.21,1.07-1.1,1.4-2.34,1.17-3.93-.14-1.01.03-2.04-.38-3.09-.56-1.42-1.15-2.01-2.64-2.06-.23,0-.5-.04-.69-.16-1.48-1-2.61-.12-3.88.57-1.22.66-2.01,1.73-2.87,2.69-.72.81-1.84,1.25-2.21,2.42-.15.47,0,1.04-.43,1.41-1.04.89-.91,2.19-1.18,3.35-.41,1.8-.53,3.62-.2,5.24Z"/>
    </g>
  </g>
</svg>